<svg width="800px" height="800px" viewBox="0 0 48 48" xmlns="http://www.w3.org/2000/svg">

 <g>
  <title>Layer 1</title>
  <path id="svg_1" stroke-linejoin="round" stroke-linecap="round" stroke="#000000" fill="none" d="m8.4,6.5l0,35a2,2 0 0 0 2,2l2.33,0l0,-39l-2.33,0a2,2 0 0 0 -2,2z" class="a"/>
  <path id="svg_2" stroke-linejoin="round" stroke-linecap="round" stroke="#000000" fill="none" d="m12.73,4.5l0,39l24.87,0a2,2 0 0 0 2,-2l0,-35a2,2 0 0 0 -2,-2l-24.87,0z" class="a"/>
  <path transform="rotate(45 26.3566 23.6991)" stroke="null" id="svg_5" fill="#000000" d="m30.88862,17.59966c-0.64883,0.55315 -0.80044,2.49226 -0.80044,2.49226l-0.45321,0c0,0 0.00474,-1.60497 -0.7764,-2.39429c-0.78114,-0.78948 -2.1488,-0.89007 -2.1488,-0.89007l0.0453,-0.48445c0,0 1.64913,-0.17582 2.18478,-0.71719c0.73796,-0.74532 0.66371,-2.11936 0.66371,-2.11936l0.46188,-0.03876c0,0 0.08145,1.5353 0.7185,2.17218c0.62527,0.62527 2.27293,0.69806 2.27293,0.69806l0.02224,0.51128c0.00016,0 -1.39186,0.08947 -2.1905,0.77035zm-6.17129,-2.87122c-0.38272,0.3258 -0.47235,1.46808 -0.47235,1.46808l-0.26725,0c0,0 0.00294,-0.94552 -0.45796,-1.4105c-0.4609,-0.46499 -1.26739,-0.5242 -1.26739,-0.5242l0.02682,-0.2854c0,0 0.9725,-0.10353 1.28849,-0.42246c0.43522,-0.43915 0.39172,-1.24842 0.39172,-1.24842l0.27232,-0.0229c0,0 0.05855,0.89367 0.4344,1.2687c0.36882,0.36833 1.33004,0.42197 1.33004,0.42197l0.01308,0.30111c0,0.00016 -0.82089,0.05299 -1.29193,0.45403zm-1.33969,2.24922l0.01325,0.30111c0,0 -0.82105,0.05283 -1.29193,0.45387c-0.38272,0.32564 -0.47219,1.46791 -0.47219,1.46791l-0.26758,0c0,0 0.00294,-0.94535 -0.45779,-1.41034c-0.46074,-0.46499 -1.26739,-0.52452 -1.26739,-0.52452l0.02666,-0.28524c0,0 0.97283,-0.10353 1.28866,-0.42246c0.43522,-0.43898 0.39155,-1.24842 0.39155,-1.24842l0.27248,-0.0229c0,0 0.04318,0.90953 0.41887,1.2844c0.36882,0.36849 1.34541,0.4066 1.34541,0.4066zm0.13166,11.17238l0.16977,-8.45981l2.02498,-2.2906l1.93552,2.09188l0.26054,8.64201l1.02337,0.27755c0,1.89888 -2.31252,2.45514 -2.31252,2.45514l0.06657,2.49226l0.54513,0.16503c0,2.11707 -3.03347,2.11707 -3.03347,0.03402l0.51226,-0.17713l0.00949,-2.50044c0,0 -2.38383,-0.70427 -2.38383,-2.41081l1.18218,-0.3191zm0.90234,-0.24353c0.06738,0.49034 0.38501,0.80666 0.77411,0.94715l0.25875,-8.31915l0.49083,-0.07687l0.26954,8.37934c0.37569,-0.15063 0.67827,-0.47039 0.74189,-0.96171l0.06395,0.01734l-0.16061,-7.72462l-1.12788,-1.45957l-1.19396,1.46546l-0.12152,7.73411l0.00491,-0.00147z" clip-rule="evenodd" fill-rule="evenodd"/>
 </g>
</svg>