<svg width="800px" height="800px" viewBox="0 0 48 48" xmlns="http://www.w3.org/2000/svg">

 <g>
  <title>Layer 1</title>
  <path id="svg_1" stroke-linejoin="round" stroke-linecap="round" stroke="#000000" fill="none" d="m8.4,6.5l0,35a2,2 0 0 0 2,2l2.33,0l0,-39l-2.33,0a2,2 0 0 0 -2,2z" class="a"/>
  <path id="svg_2" stroke-linejoin="round" stroke-linecap="round" stroke="#000000" fill="none" d="m12.73,4.5l0,39l24.87,0a2,2 0 0 0 2,-2l0,-35a2,2 0 0 0 -2,-2l-24.87,0z" class="a"/>
  <path stroke="null" id="svg_5" d="m28.41084,17.64612c-0.42215,-0.34632 -0.92013,-0.60367 -1.5041,-0.75653c-0.11166,-0.13793 -0.24541,-0.25675 -0.39588,-0.3511c-0.37199,-0.76907 -0.85027,-1.55008 -0.85027,-1.55008s-0.47768,0.78041 -0.84968,1.54948c-0.12838,0.08061 -0.24481,0.17853 -0.34512,0.29079c-0.69383,0.13853 -1.27302,0.41499 -1.75488,0.80668c-3.59276,-0.58994 -6.82666,3.01954 -5.68202,6.82368c0.46037,1.52977 2.71442,2.5126 3.88474,1.87132c-2.20569,0.00358 -2.86131,-2.39259 -2.17942,-4.05492c0.43588,-1.06224 1.20077,-1.66233 2.25884,-1.6683c-0.3505,1.31362 -0.47589,2.87624 -0.47589,4.5529l2.63023,0c-0.0627,0.44783 -0.09016,0.93327 -0.09374,1.44081c-0.0609,0.54874 0.33378,2.84519 0.33378,2.84519s1.12673,-1.86355 1.33154,-2.46961c0.22929,0.89446 0.85027,2.55858 0.85027,2.55858s0.61501,-1.648 0.84669,-2.54544c0.21615,0.61919 1.32676,2.45648 1.32676,2.45648s0.40722,-2.36631 0.33079,-2.86907c-0.00418,-0.49918 -0.03165,-0.97626 -0.09374,-1.41752l2.61053,0c0,-1.67666 -0.12539,-3.23928 -0.47529,-4.5523c1.09926,-0.02448 1.89162,0.57859 2.33885,1.6677c0.68189,1.66233 0.02687,4.0585 -2.17942,4.05492c1.17032,0.64069 3.42438,-0.34154 3.88474,-1.87132c1.15181,-3.82742 -2.12926,-7.4578 -5.7483,-6.81233zm-5.15537,3.48946c0.33139,0.35229 0.80191,0.60427 1.45932,0.71712c0,0.00119 0,0.00179 0,0.00299c0,0.50097 -0.40603,0.907 -0.907,0.907s-0.907,-0.40603 -0.907,-0.907c0,-0.29318 0.13912,-0.55411 0.35528,-0.71951l-0.0006,-0.0006zm5.11298,0.71951c0,0.50097 -0.40603,0.907 -0.907,0.907s-0.907,-0.40603 -0.907,-0.907c0,-0.01134 0.0006,-0.02269 0.0006,-0.03403c0.61263,-0.13256 1.0503,-0.39588 1.35781,-0.75235c0.06568,0.03762 0.12659,0.08359 0.18032,0.13614l0.0006,0.00179c0.0006,0 0.0006,-0.0006 0.00119,-0.0006c0.16898,0.1648 0.27407,0.39468 0.27407,0.64905l-0.0006,0zm-8.0143,9.29329c-0.44006,1.64203 1.83071,2.1424 2.24391,0.60128c0.16599,-0.61979 -0.15047,-3.92714 -0.15047,-3.92714s-1.92744,2.70606 -2.09344,3.32586zm8.25373,-3.32586c0,0 -0.31587,3.30735 -0.15047,3.92714c0.41319,1.54112 2.68397,1.04075 2.24391,-0.60128c-0.16599,-0.61979 -2.09344,-3.32586 -2.09344,-3.32586zm-2.08209,0.88371c0,0 -0.61203,2.37766 -0.56247,2.84937c0.1236,1.17271 1.83907,1.06881 1.70711,-0.18032c-0.04956,-0.47171 -1.14464,-2.66904 -1.14464,-2.66904zm-3.07448,2.66904c-0.13196,1.24914 1.58351,1.35303 1.70711,0.18032c0.04956,-0.47171 -0.56247,-2.84937 -0.56247,-2.84937s-1.09508,2.19733 -1.14464,2.66904z"/>
 </g>
</svg>