<?xml version="1.0" encoding="UTF-8"?>
<svg version="1.1" xmlns="http://www.w3.org/2000/svg" width="300" height="300">
<path d="M0 0 C2.4375 0.75 2.4375 0.75 5 2 C6.30414254 5.19092327 5.8779266 7.2156509 4.77514648 10.40917969 C4.33156799 11.71866074 4.33156799 11.71866074 3.87902832 13.05459595 C3.38010071 14.47389908 3.38010071 14.47389908 2.87109375 15.921875 C2.52985474 16.91891449 2.18861572 17.91595398 1.83703613 18.94320679 C0.71403522 22.21574208 -0.42403157 25.48281686 -1.5625 28.75 C-2.3379921 30.99954994 -3.11264422 33.24938962 -3.88647461 35.49951172 C-6.24258611 42.33827452 -8.61961123 49.16965676 -11 56 C-11.72793676 58.09209729 -12.45580369 60.18421887 -13.18359375 62.27636719 C-17.09923638 73.52574739 -21.03750014 84.76704175 -25 96 C-23.42532959 95.98428955 -23.42532959 95.98428955 -21.81884766 95.96826172 C-17.93134967 95.93211547 -14.04386659 95.90911922 -10.15625 95.89013672 C-8.47230534 95.88006683 -6.78837821 95.86641012 -5.10449219 95.84912109 C-2.68680499 95.82491574 -0.26934857 95.81352704 2.1484375 95.8046875 C2.9036972 95.79436493 3.65895691 95.78404236 4.43710327 95.77340698 C6.2929398 95.77300682 8.1481928 95.87777284 10 96 C10.66 96.66 11.32 97.32 12 98 C11.86793375 105.13157727 9.73439394 111.92195193 6 118 C3.73593674 119.97442634 1.59401443 121.26820266 -1.10131836 122.58251953 C-4.06199206 124.03031465 -6.94736879 125.57775321 -9.8359375 127.1640625 C-10.80837402 127.69725098 -11.78081055 128.23043945 -12.78271484 128.77978516 C-13.51441895 129.18245605 -14.24612305 129.58512695 -15 130 C-14.38247864 130.00364563 -13.76495728 130.00729126 -13.12872314 130.01104736 C-6.70457247 130.0528403 -0.28113839 130.1221633 6.14257812 130.20751953 C8.5402917 130.23575465 10.93809879 130.25695646 13.3359375 130.27099609 C16.78173797 130.29238972 20.22641095 130.3390238 23.671875 130.390625 C25.28144073 130.39246796 25.28144073 130.39246796 26.92352295 130.39434814 C27.92425842 130.41406677 28.9249939 130.4337854 29.95605469 130.45410156 C30.83541687 130.46298401 31.71477905 130.47186646 32.62078857 130.48101807 C35.7273048 131.15864839 36.96607523 132.6266825 39 135 C38.06819481 138.35601383 37.04800277 141.67850735 36 145 C35.6596875 146.11632812 35.319375 147.23265625 34.96875 148.3828125 C31.64971109 158.22779955 31.64971109 158.22779955 27.6875 160.75 C26.13311208 161.51667102 24.56857608 162.26279221 23 163 C20.89656181 164.16016847 18.81160335 165.35038628 16.72583008 166.54199219 C13.49700139 168.38501341 10.24787991 170.19080476 7 172 C7.85754883 172.01458252 8.71509766 172.02916504 9.59863281 172.04418945 C12.78960413 172.10535478 15.97993587 172.17952762 19.17041016 172.26245117 C20.54952667 172.29564193 21.92877711 172.32369217 23.30810547 172.34643555 C25.29422306 172.38008642 27.27996559 172.43394729 29.265625 172.48828125 C30.45961914 172.51446533 31.65361328 172.54064941 32.88378906 172.56762695 C36.18666731 173.02590002 37.58996253 173.7594998 40 176 C38.19043132 188.44311659 34.00731487 196.41622533 24 204 C22.95972656 204.81082031 21.91945313 205.62164062 20.84765625 206.45703125 C18.65278189 208.16181992 16.44588294 209.84935456 14.23046875 211.52734375 C9.37808584 215.21746199 4.69813294 219.11684931 0 223 C-1.83251892 224.50099484 -3.66585669 226.00099052 -5.5 227.5 C-6.41523438 228.24894531 -7.33046875 228.99789062 -8.2734375 229.76953125 C-10.02817784 231.20499935 -11.78335155 232.63993796 -13.5390625 234.07421875 C-18.37511239 238.02633807 -23.20195816 241.98916834 -28.02026367 245.96289062 C-34.60210516 251.39029624 -41.19468924 256.8039847 -47.8125 262.1875 C-48.47596436 262.72793945 -49.13942871 263.26837891 -49.82299805 263.82519531 C-51.03417629 264.80895393 -52.24868122 265.78863848 -53.46728516 266.76318359 C-54.69055413 267.75029423 -55.88725946 268.77029494 -57.07421875 269.80078125 C-61.72332918 272.69586625 -67.5463113 272.07332796 -72.8371582 272.03457642 C-111.35983834 271.80028017 -143.76274197 279.73954875 -179.73901367 292.7618103 C-180.8747583 293.17250763 -182.01050293 293.58320496 -183.18066406 294.00634766 C-184.16488342 294.36814117 -185.14910278 294.72993469 -186.16314697 295.10269165 C-192.46329333 297.09545401 -196.95952379 296.8530841 -203.25 295.05078125 C-204.41450684 294.7299482 -204.41450684 294.7299482 -205.60253906 294.40263367 C-207.23801392 293.94868787 -208.8717912 293.48858626 -210.50390625 293.02270508 C-212.98767303 292.31600735 -215.47733768 291.63426349 -217.96875 290.95507812 C-219.56291482 290.50929328 -221.15667947 290.06207439 -222.75 289.61328125 C-223.85649902 289.31143669 -223.85649902 289.31143669 -224.98535156 289.00349426 C-230.68937009 287.35043527 -235.50494448 285.49470931 -238.69091797 280.1784668 C-239.12033691 279.11281494 -239.54975586 278.04716309 -239.9921875 276.94921875 C-240.70761719 275.18868164 -240.70761719 275.18868164 -241.4375 273.39257812 C-241.911875 272.16990234 -242.38625 270.94722656 -242.875 269.6875 C-243.62136719 267.87088867 -243.62136719 267.87088867 -244.3828125 266.01757812 C-248.15091764 256.56108349 -248.58965841 250.01598521 -245.9453125 240.28515625 C-245.61465286 239.06329872 -245.61465286 239.06329872 -245.27731323 237.8167572 C-244.80689834 236.10166568 -244.33089311 234.38809871 -243.84960938 232.67602539 C-243.36825455 230.93987196 -242.90293 229.19919075 -242.45410156 227.4543457 C-237.94856595 209.93998571 -237.94856595 209.93998571 -229.34228516 204.3347168 C-228.56933105 203.89426025 -227.79637695 203.45380371 -227 203 C-226.04351562 202.32710937 -225.08703125 201.65421875 -224.1015625 200.9609375 C-223.28429687 200.43757812 -222.46703125 199.91421875 -221.625 199.375 C-215.87745285 195.60574809 -210.20816116 191.73278682 -204.5625 187.8125 C-203.26530029 186.92087158 -203.26530029 186.92087158 -201.94189453 186.01123047 C-194.29249139 180.68308733 -188.94084649 174.82521473 -183.5 167.3125 C-182.59229858 166.06968262 -182.59229858 166.06968262 -181.66625977 164.80175781 C-179.7722433 162.20495184 -177.8852125 159.60320287 -176 157 C-175.09096924 155.74678955 -175.09096924 155.74678955 -174.16357422 154.46826172 C-171.38341537 150.63389935 -168.60786576 146.79625891 -165.83984375 142.953125 C-165.12030518 141.95780762 -165.12030518 141.95780762 -164.38623047 140.94238281 C-163.47494006 139.66548488 -162.57759815 138.37849522 -161.69580078 137.08105469 C-159.14285173 133.35448445 -156.60781665 130.54385801 -153 127.75 C-148.0127399 123.81304603 -143.1519727 119.76340184 -138.328125 115.62988281 C-131.72108751 110 -131.72108751 110 -128 110 C-127.89558594 109.13181641 -127.89558594 109.13181641 -127.7890625 108.24609375 C-126.69540857 105.13296993 -124.98280712 104.06643438 -122.375 102.0625 C-118.84687173 99.29370643 -115.39482319 96.49966798 -112.0390625 93.5234375 C-111.36955566 92.93038818 -110.70004883 92.33733887 -110.01025391 91.72631836 C-108.68243138 90.5447595 -107.35908292 89.35815121 -106.04052734 88.16625977 C-105.42902832 87.62541748 -104.8175293 87.0845752 -104.1875 86.52734375 C-103.64480469 86.03999756 -103.10210937 85.55265137 -102.54296875 85.05053711 C-101 84 -101 84 -98 84 C-97.67 83.01 -97.34 82.02 -97 81 C-94.98828125 79.16015625 -94.98828125 79.16015625 -92.3125 77.0625 C-87.79521049 73.45921459 -83.37123516 69.77897236 -79 66 C-74.89822823 62.46330214 -70.77195461 58.97134512 -66.5625 55.5625 C-62.12760683 51.96363971 -57.80432214 48.25267936 -53.5 44.5 C-48.344201 40.00496923 -43.12489333 35.61376949 -37.80859375 31.30859375 C-34.49701065 28.58655535 -31.2469918 25.79846629 -28 23 C-18.84250564 15.11434535 -9.45417479 7.52642548 0 0 Z " fill="#010101" transform="translate(254,1)"/>
<path d="M0 0 C2.4375 0.75 2.4375 0.75 5 2 C6.30414254 5.19092327 5.8779266 7.2156509 4.77514648 10.40917969 C4.33156799 11.71866074 4.33156799 11.71866074 3.87902832 13.05459595 C3.38010071 14.47389908 3.38010071 14.47389908 2.87109375 15.921875 C2.52985474 16.91891449 2.18861572 17.91595398 1.83703613 18.94320679 C0.71403522 22.21574208 -0.42403157 25.48281686 -1.5625 28.75 C-2.3379921 30.99954994 -3.11264422 33.24938962 -3.88647461 35.49951172 C-6.24258611 42.33827452 -8.61961123 49.16965676 -11 56 C-11.72793676 58.09209729 -12.45580369 60.18421887 -13.18359375 62.27636719 C-17.09923638 73.52574739 -21.03750014 84.76704175 -25 96 C-23.42532959 95.98428955 -23.42532959 95.98428955 -21.81884766 95.96826172 C-17.93134967 95.93211547 -14.04386659 95.90911922 -10.15625 95.89013672 C-8.47230534 95.88006683 -6.78837821 95.86641012 -5.10449219 95.84912109 C-2.68680499 95.82491574 -0.26934857 95.81352704 2.1484375 95.8046875 C2.9036972 95.79436493 3.65895691 95.78404236 4.43710327 95.77340698 C6.2929398 95.77300682 8.1481928 95.87777284 10 96 C10.66 96.66 11.32 97.32 12 98 C11.86793375 105.13157727 9.73439394 111.92195193 6 118 C3.73593674 119.97442634 1.59401443 121.26820266 -1.10131836 122.58251953 C-4.06199206 124.03031465 -6.94736879 125.57775321 -9.8359375 127.1640625 C-10.80837402 127.69725098 -11.78081055 128.23043945 -12.78271484 128.77978516 C-13.51441895 129.18245605 -14.24612305 129.58512695 -15 130 C-14.38247864 130.00364563 -13.76495728 130.00729126 -13.12872314 130.01104736 C-6.70457247 130.0528403 -0.28113839 130.1221633 6.14257812 130.20751953 C8.5402917 130.23575465 10.93809879 130.25695646 13.3359375 130.27099609 C16.78173797 130.29238972 20.22641095 130.3390238 23.671875 130.390625 C25.28144073 130.39246796 25.28144073 130.39246796 26.92352295 130.39434814 C27.92425842 130.41406677 28.9249939 130.4337854 29.95605469 130.45410156 C30.83541687 130.46298401 31.71477905 130.47186646 32.62078857 130.48101807 C35.7273048 131.15864839 36.96607523 132.6266825 39 135 C38.06819481 138.35601383 37.04800277 141.67850735 36 145 C35.6596875 146.11632812 35.319375 147.23265625 34.96875 148.3828125 C31.64971109 158.22779955 31.64971109 158.22779955 27.6875 160.75 C26.13311208 161.51667102 24.56857608 162.26279221 23 163 C20.89656181 164.16016847 18.81160335 165.35038628 16.72583008 166.54199219 C13.49700139 168.38501341 10.24787991 170.19080476 7 172 C7.85754883 172.01458252 8.71509766 172.02916504 9.59863281 172.04418945 C12.78960413 172.10535478 15.97993587 172.17952762 19.17041016 172.26245117 C20.54952667 172.29564193 21.92877711 172.32369217 23.30810547 172.34643555 C25.29422306 172.38008642 27.27996559 172.43394729 29.265625 172.48828125 C30.45961914 172.51446533 31.65361328 172.54064941 32.88378906 172.56762695 C36.18666731 173.02590002 37.58996253 173.7594998 40 176 C38.19043132 188.44311659 34.00731487 196.41622533 24 204 C22.95972656 204.81082031 21.91945313 205.62164062 20.84765625 206.45703125 C18.65278189 208.16181992 16.44588294 209.84935456 14.23046875 211.52734375 C9.37808584 215.21746199 4.69813294 219.11684931 0 223 C-1.83251892 224.50099484 -3.66585669 226.00099052 -5.5 227.5 C-6.41523438 228.24894531 -7.33046875 228.99789062 -8.2734375 229.76953125 C-10.02817784 231.20499935 -11.78335155 232.63993796 -13.5390625 234.07421875 C-18.37511239 238.02633807 -23.20195816 241.98916834 -28.02026367 245.96289062 C-34.60210516 251.39029624 -41.19468924 256.8039847 -47.8125 262.1875 C-48.47596436 262.72793945 -49.13942871 263.26837891 -49.82299805 263.82519531 C-51.03417629 264.80895393 -52.24868122 265.78863848 -53.46728516 266.76318359 C-54.69055413 267.75029423 -55.88725946 268.77029494 -57.07421875 269.80078125 C-61.72332918 272.69586625 -67.5463113 272.07332796 -72.8371582 272.03457642 C-111.35983834 271.80028017 -143.76274197 279.73954875 -179.73901367 292.7618103 C-180.8747583 293.17250763 -182.01050293 293.58320496 -183.18066406 294.00634766 C-184.16488342 294.36814117 -185.14910278 294.72993469 -186.16314697 295.10269165 C-192.46329333 297.09545401 -196.95952379 296.8530841 -203.25 295.05078125 C-204.41450684 294.7299482 -204.41450684 294.7299482 -205.60253906 294.40263367 C-207.23801392 293.94868787 -208.8717912 293.48858626 -210.50390625 293.02270508 C-212.98767303 292.31600735 -215.47733768 291.63426349 -217.96875 290.95507812 C-219.56291482 290.50929328 -221.15667947 290.06207439 -222.75 289.61328125 C-223.85649902 289.31143669 -223.85649902 289.31143669 -224.98535156 289.00349426 C-230.68937009 287.35043527 -235.50494448 285.49470931 -238.69091797 280.1784668 C-239.12033691 279.11281494 -239.54975586 278.04716309 -239.9921875 276.94921875 C-240.70761719 275.18868164 -240.70761719 275.18868164 -241.4375 273.39257812 C-241.911875 272.16990234 -242.38625 270.94722656 -242.875 269.6875 C-243.62136719 267.87088867 -243.62136719 267.87088867 -244.3828125 266.01757812 C-248.15091764 256.56108349 -248.58965841 250.01598521 -245.9453125 240.28515625 C-245.61465286 239.06329872 -245.61465286 239.06329872 -245.27731323 237.8167572 C-244.80689834 236.10166568 -244.33089311 234.38809871 -243.84960938 232.67602539 C-243.36825455 230.93987196 -242.90293 229.19919075 -242.45410156 227.4543457 C-237.94856595 209.93998571 -237.94856595 209.93998571 -229.34228516 204.3347168 C-228.56933105 203.89426025 -227.79637695 203.45380371 -227 203 C-226.04351562 202.32710937 -225.08703125 201.65421875 -224.1015625 200.9609375 C-223.28429687 200.43757812 -222.46703125 199.91421875 -221.625 199.375 C-215.87745285 195.60574809 -210.20816116 191.73278682 -204.5625 187.8125 C-203.26530029 186.92087158 -203.26530029 186.92087158 -201.94189453 186.01123047 C-194.29249139 180.68308733 -188.94084649 174.82521473 -183.5 167.3125 C-182.59229858 166.06968262 -182.59229858 166.06968262 -181.66625977 164.80175781 C-179.7722433 162.20495184 -177.8852125 159.60320287 -176 157 C-175.09096924 155.74678955 -175.09096924 155.74678955 -174.16357422 154.46826172 C-171.38341537 150.63389935 -168.60786576 146.79625891 -165.83984375 142.953125 C-165.12030518 141.95780762 -165.12030518 141.95780762 -164.38623047 140.94238281 C-163.47494006 139.66548488 -162.57759815 138.37849522 -161.69580078 137.08105469 C-159.14285173 133.35448445 -156.60781665 130.54385801 -153 127.75 C-148.0127399 123.81304603 -143.1519727 119.76340184 -138.328125 115.62988281 C-131.72108751 110 -131.72108751 110 -128 110 C-127.89558594 109.13181641 -127.89558594 109.13181641 -127.7890625 108.24609375 C-126.69540857 105.13296993 -124.98280712 104.06643438 -122.375 102.0625 C-118.84687173 99.29370643 -115.39482319 96.49966798 -112.0390625 93.5234375 C-111.36955566 92.93038818 -110.70004883 92.33733887 -110.01025391 91.72631836 C-108.68243138 90.5447595 -107.35908292 89.35815121 -106.04052734 88.16625977 C-105.42902832 87.62541748 -104.8175293 87.0845752 -104.1875 86.52734375 C-103.64480469 86.03999756 -103.10210937 85.55265137 -102.54296875 85.05053711 C-101 84 -101 84 -98 84 C-97.67 83.01 -97.34 82.02 -97 81 C-94.98828125 79.16015625 -94.98828125 79.16015625 -92.3125 77.0625 C-87.79521049 73.45921459 -83.37123516 69.77897236 -79 66 C-74.89822823 62.46330214 -70.77195461 58.97134512 -66.5625 55.5625 C-62.12760683 51.96363971 -57.80432214 48.25267936 -53.5 44.5 C-48.344201 40.00496923 -43.12489333 35.61376949 -37.80859375 31.30859375 C-34.49701065 28.58655535 -31.2469918 25.79846629 -28 23 C-18.84250564 15.11434535 -9.45417479 7.52642548 0 0 Z M-105.9375 94.4375 C-110.76385314 98.93415765 -115.74522961 103.14452642 -120.8828125 107.28515625 C-122.86206774 108.82726076 -122.86206774 108.82726076 -124 110 C-124.07271741 112.35313555 -124.08370868 114.70833668 -124.0625 117.0625 C-124.05347656 118.35285156 -124.04445313 119.64320312 -124.03515625 120.97265625 C-124.02355469 121.97167969 -124.01195312 122.97070312 -124 124 C-127.90625 121.3984375 -127.90625 121.3984375 -128.75 117.8125 C-128.8325 116.884375 -128.915 115.95625 -129 115 C-135.72942895 119.88213473 -142.06505486 125.17071784 -148.35449219 130.60058594 C-149.4755912 131.5540191 -150.61255962 132.48902959 -151.76269531 133.40722656 C-156.24515839 137.04754474 -159.41825737 140.96890635 -162.625 145.75 C-163.66038644 147.25464441 -164.69688477 148.75852418 -165.734375 150.26171875 C-166.26611328 151.03692871 -166.79785156 151.81213867 -167.34570312 152.61083984 C-170.13237545 156.63539347 -173.00346326 160.59826927 -175.875 164.5625 C-176.65931396 165.64966309 -176.65931396 165.64966309 -177.45947266 166.75878906 C-180.53611143 171.01452833 -183.67310465 175.21015008 -186.90283203 179.35131836 C-188.18467241 180.9474374 -188.18467241 180.9474374 -188 183 C-189.03253906 183.34611328 -189.03253906 183.34611328 -190.0859375 183.69921875 C-193.64079014 185.28603635 -196.54959253 187.46718657 -199.625 189.8125 C-205.67189675 194.33830908 -211.82037862 198.68503209 -218.0625 202.9375 C-218.85930176 203.48059814 -219.65610352 204.02369629 -220.47705078 204.58325195 C-221.23872559 205.10105225 -222.00040039 205.61885254 -222.78515625 206.15234375 C-223.50936768 206.65572266 -224.2335791 207.15910156 -224.97973633 207.67773438 C-227 209 -227 209 -230.328125 210.58984375 C-234.7631133 214.59041068 -235.36839475 219.95190295 -236.6875 225.625 C-237.25271689 227.9091488 -237.81910722 230.19300758 -238.38671875 232.4765625 C-238.78383057 234.13993652 -238.78383057 234.13993652 -239.18896484 235.83691406 C-239.92560944 238.70987233 -240.81293556 241.46821928 -241.76953125 244.2734375 C-244.46946215 253.21447371 -241.30191968 260.71246358 -237.9375 269.0625 C-237.56044922 270.02349609 -237.18339844 270.98449219 -236.79492188 271.97460938 C-235.87293344 274.32042804 -234.94121118 276.66184338 -234 279 C-230.88837352 277.63903244 -229.0502843 276.14479482 -226.8203125 273.60546875 C-222.95157527 269.63069641 -219.08314544 268.00882519 -213.875 266.3125 C-212.63399536 265.88215454 -212.63399536 265.88215454 -211.36791992 265.44311523 C-208.91963258 264.6028283 -206.4634654 263.79456793 -204 263 C-203.29214355 262.77119141 -202.58428711 262.54238281 -201.85498047 262.30664062 C-198.25111083 261.15354426 -194.63499233 260.05068898 -191 259 C-190.98815674 257.76789795 -190.97631348 256.5357959 -190.96411133 255.26635742 C-190.67715454 253.04696655 -190.67715454 253.04696655 -190 251 C-187.40129157 249.06237181 -185.49049528 247.96931249 -182.57421875 246.73828125 C-181.42457642 246.20860497 -181.42457642 246.20860497 -180.25170898 245.66822815 C-177.74250644 244.52021947 -175.21620647 243.4167929 -172.6875 242.3125 C-170.94826804 241.52594429 -169.21039859 240.73636914 -167.47387695 239.94384766 C-163.97763368 238.35305544 -160.47478879 236.77858401 -156.96484375 235.21826172 C-152.57093914 233.26198322 -148.20088166 231.25936806 -143.84375 229.22265625 C-142.92298927 228.79265823 -142.92298927 228.79265823 -141.98362732 228.35397339 C-140.21785051 227.52850626 -138.45266745 226.70176938 -136.6875 225.875 C-124.71967228 220.27409428 -124.71967228 220.27409428 -118.71484375 217.77734375 C-111.08543908 214.54963911 -105.51343678 211.94147016 -101.71484375 204.1015625 C-100.89265703 202.0543921 -100.89265703 202.0543921 -101 200 C-103.31 200 -105.62 200 -108 200 C-108 199.34 -108 198.68 -108 198 C-106.845 197.896875 -105.69 197.79375 -104.5 197.6875 C-98.50910754 196.90285214 -93.61979971 195.86899967 -89.5625 191.1875 C-89.17707031 190.66929687 -88.79164063 190.15109375 -88.39453125 189.6171875 C-82.92211914 183.27102892 -74.38128075 179.53942232 -66.15771484 178.71508789 C-63.03629286 178.59748449 -59.93583382 178.58446493 -56.8125 178.625 C-55.70841797 178.63297607 -54.60433594 178.64095215 -53.46679688 178.64916992 C-45.26829728 178.79195684 -37.88476234 179.65886608 -30 182 C-29.20335937 182.17015625 -28.40671875 182.3403125 -27.5859375 182.515625 C-21.27522265 184.0765792 -16.99425638 188.01862733 -12.203125 192.23046875 C-7.92496803 195.98647799 -3.35913509 199.35231747 1.1875 202.7734375 C3.65005411 204.72295951 5.84007006 206.72584299 8 209 C12.39086093 207.55521304 15.545484 205.16417051 19 202.1875 C19.50789063 201.76146484 20.01578125 201.33542969 20.5390625 200.89648438 C29.32418418 193.4516569 30.6976781 190.04650131 35 178 C19.49 177.67 3.98 177.34 -12 177 C-7.978125 174.855 -3.95625 172.71 0.1875 170.5 C2.58385951 169.19867357 4.97878487 167.89469554 7.37109375 166.5859375 C11.01867188 164.59542097 14.66289125 162.6469554 18.41015625 160.8515625 C26.17049238 156.8397864 28.82701554 152.62008285 31.44433594 144.54541016 C31.98970664 142.70467354 32.4971272 140.85279773 33 139 C33.33 138.01 33.66 137.02 34 136 C11.56 136 -10.88 136 -34 136 C-34 135.34 -34 134.68 -34 134 C-33.29278809 133.72905518 -32.58557617 133.45811035 -31.85693359 133.17895508 C-26.61888771 131.01739948 -21.65124967 128.2961699 -16.625 125.6875 C-15.51382813 125.11837891 -14.40265625 124.54925781 -13.2578125 123.96289062 C-2.96131663 119.17702512 -2.96131663 119.17702512 4.55859375 111.17578125 C4.84863281 110.23089844 5.13867188 109.28601563 5.4375 108.3125 C5.74558594 107.35988281 6.05367187 106.40726563 6.37109375 105.42578125 C7.08365405 103.09499777 7.08365405 103.09499777 7 101 C5.75829544 100.99857498 4.51659088 100.99714996 3.23725891 100.99568176 C-8.4606989 100.9790173 -20.1583086 100.93626029 -31.85608196 100.86790943 C-37.8701699 100.8336086 -43.88400297 100.80852458 -49.89819336 100.80444336 C-55.70151816 100.80016714 -61.50426771 100.77175985 -67.3074131 100.72656822 C-69.52216047 100.71357168 -71.73697661 100.70929313 -73.95175743 100.71384621 C-77.05269984 100.71873666 -80.15195093 100.69272739 -83.25268555 100.65942383 C-84.16978302 100.66804947 -85.08688049 100.67667511 -86.0317688 100.68556213 C-90.51278002 100.60480738 -92.41055765 100.4558836 -96.0584259 97.63456726 C-98.03327602 94.954847 -98.71836712 93.28571689 -99 90 C-102.23504159 90 -103.6380866 92.2700472 -105.9375 94.4375 Z " fill="#CB3131" transform="translate(254,1)"/>
<path d="M0 0 C2.4375 0.75 2.4375 0.75 5 2 C6.30414254 5.19092327 5.8779266 7.2156509 4.77514648 10.40917969 C4.33156799 11.71866074 4.33156799 11.71866074 3.87902832 13.05459595 C3.38010071 14.47389908 3.38010071 14.47389908 2.87109375 15.921875 C2.52985474 16.91891449 2.18861572 17.91595398 1.83703613 18.94320679 C0.71403522 22.21574208 -0.42403157 25.48281686 -1.5625 28.75 C-2.3379921 30.99954994 -3.11264422 33.24938962 -3.88647461 35.49951172 C-6.24258611 42.33827452 -8.61961123 49.16965676 -11 56 C-11.72793676 58.09209729 -12.45580369 60.18421887 -13.18359375 62.27636719 C-17.09923638 73.52574739 -21.03750014 84.76704175 -25 96 C-23.42532959 95.98428955 -23.42532959 95.98428955 -21.81884766 95.96826172 C-17.93134967 95.93211547 -14.04386659 95.90911922 -10.15625 95.89013672 C-8.47230534 95.88006683 -6.78837821 95.86641012 -5.10449219 95.84912109 C-2.68680499 95.82491574 -0.26934857 95.81352704 2.1484375 95.8046875 C2.9036972 95.79436493 3.65895691 95.78404236 4.43710327 95.77340698 C6.2929398 95.77300682 8.1481928 95.87777284 10 96 C10.66 96.66 11.32 97.32 12 98 C11.86793375 105.13157727 9.73439394 111.92195193 6 118 C3.73593674 119.97442634 1.59401443 121.26820266 -1.10131836 122.58251953 C-4.06199206 124.03031465 -6.94736879 125.57775321 -9.8359375 127.1640625 C-10.80837402 127.69725098 -11.78081055 128.23043945 -12.78271484 128.77978516 C-13.51441895 129.18245605 -14.24612305 129.58512695 -15 130 C-14.38247864 130.00364563 -13.76495728 130.00729126 -13.12872314 130.01104736 C-6.70457247 130.0528403 -0.28113839 130.1221633 6.14257812 130.20751953 C8.5402917 130.23575465 10.93809879 130.25695646 13.3359375 130.27099609 C16.78173797 130.29238972 20.22641095 130.3390238 23.671875 130.390625 C25.28144073 130.39246796 25.28144073 130.39246796 26.92352295 130.39434814 C27.92425842 130.41406677 28.9249939 130.4337854 29.95605469 130.45410156 C30.83541687 130.46298401 31.71477905 130.47186646 32.62078857 130.48101807 C35.7273048 131.15864839 36.96607523 132.6266825 39 135 C38.06819481 138.35601383 37.04800277 141.67850735 36 145 C35.6596875 146.11632812 35.319375 147.23265625 34.96875 148.3828125 C31.64971109 158.22779955 31.64971109 158.22779955 27.6875 160.75 C26.13311208 161.51667102 24.56857608 162.26279221 23 163 C20.89656181 164.16016847 18.81160335 165.35038628 16.72583008 166.54199219 C13.49700139 168.38501341 10.24787991 170.19080476 7 172 C7.85754883 172.01458252 8.71509766 172.02916504 9.59863281 172.04418945 C12.78960413 172.10535478 15.97993587 172.17952762 19.17041016 172.26245117 C20.54952667 172.29564193 21.92877711 172.32369217 23.30810547 172.34643555 C25.29422306 172.38008642 27.27996559 172.43394729 29.265625 172.48828125 C30.45961914 172.51446533 31.65361328 172.54064941 32.88378906 172.56762695 C36.18666731 173.02590002 37.58996253 173.7594998 40 176 C38.19043132 188.44311659 34.00731487 196.41622533 24 204 C22.95972656 204.81082031 21.91945313 205.62164062 20.84765625 206.45703125 C18.65278189 208.16181992 16.44588294 209.84935456 14.23046875 211.52734375 C9.37808584 215.21746199 4.69813294 219.11684931 0 223 C-1.83251892 224.50099484 -3.66585669 226.00099052 -5.5 227.5 C-6.41523438 228.24894531 -7.33046875 228.99789062 -8.2734375 229.76953125 C-10.02817784 231.20499935 -11.78335155 232.63993796 -13.5390625 234.07421875 C-18.37511239 238.02633807 -23.20195816 241.98916834 -28.02026367 245.96289062 C-34.60210516 251.39029624 -41.19468924 256.8039847 -47.8125 262.1875 C-48.47596436 262.72793945 -49.13942871 263.26837891 -49.82299805 263.82519531 C-51.03417629 264.80895393 -52.24868122 265.78863848 -53.46728516 266.76318359 C-54.69055413 267.75029423 -55.88725946 268.77029494 -57.07421875 269.80078125 C-61.72332918 272.69586625 -67.5463113 272.07332796 -72.8371582 272.03457642 C-111.35983834 271.80028017 -143.76274197 279.73954875 -179.73901367 292.7618103 C-180.8747583 293.17250763 -182.01050293 293.58320496 -183.18066406 294.00634766 C-184.16488342 294.36814117 -185.14910278 294.72993469 -186.16314697 295.10269165 C-192.46329333 297.09545401 -196.95952379 296.8530841 -203.25 295.05078125 C-204.41450684 294.7299482 -204.41450684 294.7299482 -205.60253906 294.40263367 C-207.23801392 293.94868787 -208.8717912 293.48858626 -210.50390625 293.02270508 C-212.98767303 292.31600735 -215.47733768 291.63426349 -217.96875 290.95507812 C-219.56291482 290.50929328 -221.15667947 290.06207439 -222.75 289.61328125 C-223.85649902 289.31143669 -223.85649902 289.31143669 -224.98535156 289.00349426 C-230.68937009 287.35043527 -235.50494448 285.49470931 -238.69091797 280.1784668 C-239.12033691 279.11281494 -239.54975586 278.04716309 -239.9921875 276.94921875 C-240.70761719 275.18868164 -240.70761719 275.18868164 -241.4375 273.39257812 C-241.911875 272.16990234 -242.38625 270.94722656 -242.875 269.6875 C-243.62136719 267.87088867 -243.62136719 267.87088867 -244.3828125 266.01757812 C-248.15091764 256.56108349 -248.58965841 250.01598521 -245.9453125 240.28515625 C-245.61465286 239.06329872 -245.61465286 239.06329872 -245.27731323 237.8167572 C-244.80689834 236.10166568 -244.33089311 234.38809871 -243.84960938 232.67602539 C-243.36825455 230.93987196 -242.90293 229.19919075 -242.45410156 227.4543457 C-237.94856595 209.93998571 -237.94856595 209.93998571 -229.34228516 204.3347168 C-228.56933105 203.89426025 -227.79637695 203.45380371 -227 203 C-226.04351562 202.32710937 -225.08703125 201.65421875 -224.1015625 200.9609375 C-223.28429687 200.43757812 -222.46703125 199.91421875 -221.625 199.375 C-215.87745285 195.60574809 -210.20816116 191.73278682 -204.5625 187.8125 C-203.26530029 186.92087158 -203.26530029 186.92087158 -201.94189453 186.01123047 C-194.29249139 180.68308733 -188.94084649 174.82521473 -183.5 167.3125 C-182.59229858 166.06968262 -182.59229858 166.06968262 -181.66625977 164.80175781 C-179.7722433 162.20495184 -177.8852125 159.60320287 -176 157 C-175.09096924 155.74678955 -175.09096924 155.74678955 -174.16357422 154.46826172 C-171.38341537 150.63389935 -168.60786576 146.79625891 -165.83984375 142.953125 C-165.12030518 141.95780762 -165.12030518 141.95780762 -164.38623047 140.94238281 C-163.47494006 139.66548488 -162.57759815 138.37849522 -161.69580078 137.08105469 C-159.14285173 133.35448445 -156.60781665 130.54385801 -153 127.75 C-148.0127399 123.81304603 -143.1519727 119.76340184 -138.328125 115.62988281 C-131.72108751 110 -131.72108751 110 -128 110 C-127.89558594 109.13181641 -127.89558594 109.13181641 -127.7890625 108.24609375 C-126.69540857 105.13296993 -124.98280712 104.06643438 -122.375 102.0625 C-118.84687173 99.29370643 -115.39482319 96.49966798 -112.0390625 93.5234375 C-111.36955566 92.93038818 -110.70004883 92.33733887 -110.01025391 91.72631836 C-108.68243138 90.5447595 -107.35908292 89.35815121 -106.04052734 88.16625977 C-105.42902832 87.62541748 -104.8175293 87.0845752 -104.1875 86.52734375 C-103.64480469 86.03999756 -103.10210937 85.55265137 -102.54296875 85.05053711 C-101 84 -101 84 -98 84 C-97.67 83.01 -97.34 82.02 -97 81 C-94.98828125 79.16015625 -94.98828125 79.16015625 -92.3125 77.0625 C-87.79521049 73.45921459 -83.37123516 69.77897236 -79 66 C-74.89822823 62.46330214 -70.77195461 58.97134512 -66.5625 55.5625 C-62.12760683 51.96363971 -57.80432214 48.25267936 -53.5 44.5 C-48.344201 40.00496923 -43.12489333 35.61376949 -37.80859375 31.30859375 C-34.49701065 28.58655535 -31.2469918 25.79846629 -28 23 C-18.84250564 15.11434535 -9.45417479 7.52642548 0 0 Z M-105.9375 94.4375 C-110.76385314 98.93415765 -115.74522961 103.14452642 -120.8828125 107.28515625 C-122.86206774 108.82726076 -122.86206774 108.82726076 -124 110 C-124.07271741 112.35313555 -124.08370868 114.70833668 -124.0625 117.0625 C-124.05347656 118.35285156 -124.04445313 119.64320312 -124.03515625 120.97265625 C-124.02355469 121.97167969 -124.01195312 122.97070312 -124 124 C-127.90625 121.3984375 -127.90625 121.3984375 -128.75 117.8125 C-128.8325 116.884375 -128.915 115.95625 -129 115 C-135.72942895 119.88213473 -142.06505486 125.17071784 -148.35449219 130.60058594 C-149.4755912 131.5540191 -150.61255962 132.48902959 -151.76269531 133.40722656 C-156.24515839 137.04754474 -159.41825737 140.96890635 -162.625 145.75 C-163.66038644 147.25464441 -164.69688477 148.75852418 -165.734375 150.26171875 C-166.26611328 151.03692871 -166.79785156 151.81213867 -167.34570312 152.61083984 C-170.13237545 156.63539347 -173.00346326 160.59826927 -175.875 164.5625 C-176.65931396 165.64966309 -176.65931396 165.64966309 -177.45947266 166.75878906 C-180.53611143 171.01452833 -183.67310465 175.21015008 -186.90283203 179.35131836 C-188.18467241 180.9474374 -188.18467241 180.9474374 -188 183 C-189.03253906 183.34611328 -189.03253906 183.34611328 -190.0859375 183.69921875 C-193.64079014 185.28603635 -196.54959253 187.46718657 -199.625 189.8125 C-205.67189675 194.33830908 -211.82037862 198.68503209 -218.0625 202.9375 C-218.85930176 203.48059814 -219.65610352 204.02369629 -220.47705078 204.58325195 C-221.23872559 205.10105225 -222.00040039 205.61885254 -222.78515625 206.15234375 C-223.50936768 206.65572266 -224.2335791 207.15910156 -224.97973633 207.67773438 C-227 209 -227 209 -230.328125 210.58984375 C-234.7631133 214.59041068 -235.36839475 219.95190295 -236.6875 225.625 C-237.25271689 227.9091488 -237.81910722 230.19300758 -238.38671875 232.4765625 C-238.78383057 234.13993652 -238.78383057 234.13993652 -239.18896484 235.83691406 C-239.92560944 238.70987233 -240.81293556 241.46821928 -241.76953125 244.2734375 C-244.46946215 253.21447371 -241.30191968 260.71246358 -237.9375 269.0625 C-237.56044922 270.02349609 -237.18339844 270.98449219 -236.79492188 271.97460938 C-235.87293344 274.32042804 -234.94121118 276.66184338 -234 279 C-230.88837352 277.63903244 -229.0502843 276.14479482 -226.8203125 273.60546875 C-222.95157527 269.63069641 -219.08314544 268.00882519 -213.875 266.3125 C-212.63399536 265.88215454 -212.63399536 265.88215454 -211.36791992 265.44311523 C-208.91963258 264.6028283 -206.4634654 263.79456793 -204 263 C-203.29214355 262.77119141 -202.58428711 262.54238281 -201.85498047 262.30664062 C-198.25111083 261.15354426 -194.63499233 260.05068898 -191 259 C-190.98815674 257.76789795 -190.97631348 256.5357959 -190.96411133 255.26635742 C-190.67715454 253.04696655 -190.67715454 253.04696655 -190 251 C-187.40129157 249.06237181 -185.49049528 247.96931249 -182.57421875 246.73828125 C-181.42457642 246.20860497 -181.42457642 246.20860497 -180.25170898 245.66822815 C-177.74250644 244.52021947 -175.21620647 243.4167929 -172.6875 242.3125 C-170.94826804 241.52594429 -169.21039859 240.73636914 -167.47387695 239.94384766 C-163.97763368 238.35305544 -160.47478879 236.77858401 -156.96484375 235.21826172 C-152.57093914 233.26198322 -148.20088166 231.25936806 -143.84375 229.22265625 C-142.92298927 228.79265823 -142.92298927 228.79265823 -141.98362732 228.35397339 C-140.21785051 227.52850626 -138.45266745 226.70176938 -136.6875 225.875 C-124.71967228 220.27409428 -124.71967228 220.27409428 -118.71484375 217.77734375 C-111.08543908 214.54963911 -105.51343678 211.94147016 -101.71484375 204.1015625 C-100.89265703 202.0543921 -100.89265703 202.0543921 -101 200 C-103.31 200 -105.62 200 -108 200 C-108 199.34 -108 198.68 -108 198 C-106.205625 197.7834375 -106.205625 197.7834375 -104.375 197.5625 C-100.8994842 197.12960657 -97.45049966 196.60383744 -94 196 C-94.31453125 196.53367187 -94.6290625 197.06734375 -94.953125 197.6171875 C-97.34330342 201.77840174 -99.19924835 205.58040854 -100.5625 210.1875 C-102.29601503 214.74416809 -104.43482838 216.25013571 -108.75 218.4375 C-110.81594325 219.33290882 -112.89872258 220.19098104 -115 221 C-115.72960937 221.28101563 -116.45921875 221.56203125 -117.2109375 221.8515625 C-118.47506327 222.32109493 -119.74331673 222.77967736 -121.015625 223.2265625 C-123.38803323 224.1512413 -125.60912314 225.27641403 -127.875 226.4375 C-132.00042808 228.55067799 -136.17299843 230.29268121 -140.4921875 231.96484375 C-143.97872805 233.40399211 -147.29346067 235.13643264 -150.6484375 236.85546875 C-153.26070004 238.12688557 -155.94332174 239.08923341 -158.6796875 240.05859375 C-162.4665858 241.59502892 -166.07633524 243.50157808 -169.69921875 245.38671875 C-173.32189944 247.24891746 -176.87116124 248.65513332 -180.75 249.875 C-183.17544067 250.66412701 -183.17544067 250.66412701 -185 252 C-185.56461699 254.06371773 -185.56461699 254.06371773 -185.625 256.375 C-185.91015625 258.76171875 -185.91015625 258.76171875 -187 261 C-192.03997068 263.8128572 -197.4892506 265.34886964 -203 267 C-217.16906501 270.78459803 -217.16906501 270.78459803 -227 281 C-227 281.66 -227 282.32 -227 283 C-222.40474497 284.45615874 -217.80436624 285.89403189 -213.19824219 287.31542969 C-211.16150759 287.94970377 -209.13146778 288.60209349 -207.1015625 289.2578125 C-205.91304687 289.62648438 -204.72453125 289.99515625 -203.5 290.375 C-202.4378125 290.71273437 -201.375625 291.05046875 -200.28125 291.3984375 C-192.75581648 292.77810031 -185.94905382 290.22793464 -178.875 287.875 C-176.91802891 287.23809637 -174.96099588 286.60138302 -173.00390625 285.96484375 C-172.00891113 285.6385498 -171.01391602 285.31225586 -169.98876953 284.97607422 C-164.35084512 283.13483735 -158.6971007 281.34242797 -153.03808594 279.56713867 C-148.74233502 278.21506979 -144.4736009 276.82862978 -140.23828125 275.296875 C-125.28559633 269.99108358 -110.40727684 269.01183195 -94.61045837 268.95097351 C-71.13883962 270.0173068 -71.13883962 270.0173068 -50.8125 260.5625 C-48.9948424 258.70147406 -47.28012763 256.8037085 -45.609375 254.81005859 C-43.01404343 251.89109799 -39.94165759 249.68794866 -36.8125 247.375 C-31.38190932 243.1791623 -26.16233684 238.76638619 -20.97460938 234.27563477 C-16.86145653 230.71961661 -12.67199453 227.2825874 -8.40625 223.91015625 C-5.85264677 221.88302641 -3.33109878 219.82043635 -0.8125 217.75 C2.99520756 214.6282199 6.81791363 211.52649847 10.66162109 208.44921875 C11.96864756 207.40125722 13.27238113 206.34917526 14.57275391 205.29296875 C17.24091062 203.13704876 19.85371647 201.09363811 22.74609375 199.2421875 C31.48030538 193.6157645 30.66825007 189.55133314 35 178 C19.49 177.67 3.98 177.34 -12 177 C-7.978125 174.855 -3.95625 172.71 0.1875 170.5 C2.58385951 169.19867357 4.97878487 167.89469554 7.37109375 166.5859375 C11.01867188 164.59542097 14.66289125 162.6469554 18.41015625 160.8515625 C26.17049238 156.8397864 28.82701554 152.62008285 31.44433594 144.54541016 C31.98970664 142.70467354 32.4971272 140.85279773 33 139 C33.33 138.01 33.66 137.02 34 136 C11.56 136 -10.88 136 -34 136 C-34 135.34 -34 134.68 -34 134 C-33.29278809 133.72905518 -32.58557617 133.45811035 -31.85693359 133.17895508 C-26.61888771 131.01739948 -21.65124967 128.2961699 -16.625 125.6875 C-15.51382813 125.11837891 -14.40265625 124.54925781 -13.2578125 123.96289062 C-2.96131663 119.17702512 -2.96131663 119.17702512 4.55859375 111.17578125 C4.84863281 110.23089844 5.13867188 109.28601563 5.4375 108.3125 C5.74558594 107.35988281 6.05367187 106.40726563 6.37109375 105.42578125 C7.08365405 103.09499777 7.08365405 103.09499777 7 101 C5.75829544 100.99857498 4.51659088 100.99714996 3.23725891 100.99568176 C-8.4606989 100.9790173 -20.1583086 100.93626029 -31.85608196 100.86790943 C-37.8701699 100.8336086 -43.88400297 100.80852458 -49.89819336 100.80444336 C-55.70151816 100.80016714 -61.50426771 100.77175985 -67.3074131 100.72656822 C-69.52216047 100.71357168 -71.73697661 100.70929313 -73.95175743 100.71384621 C-77.05269984 100.71873666 -80.15195093 100.69272739 -83.25268555 100.65942383 C-84.16978302 100.66804947 -85.08688049 100.67667511 -86.0317688 100.68556213 C-90.51278002 100.60480738 -92.41055765 100.4558836 -96.0584259 97.63456726 C-98.03327602 94.954847 -98.71836712 93.28571689 -99 90 C-102.23504159 90 -103.6380866 92.2700472 -105.9375 94.4375 Z " fill="#F2F0F0" transform="translate(254,1)"/>
<path d="M0 0 C0.99 0.495 0.99 0.495 2 1 C1.47212891 2.34964844 1.47212891 2.34964844 0.93359375 3.7265625 C-2.54662517 12.75315639 -5.62644462 21.85830064 -8.46313477 31.10791016 C-9.78747046 35.381956 -11.18688534 39.55977673 -12.8984375 43.6953125 C-15.68086616 50.48775117 -17.79742512 57.50407569 -20 64.5 C-20.84984235 67.19931015 -21.70472402 69.89695178 -22.5625 72.59375 C-22.93503906 73.77646484 -23.30757813 74.95917969 -23.69140625 76.17773438 C-25.23603649 80.87103396 -27.12811298 85.42971229 -29 90 C-36.45838419 90.13931359 -43.91648574 90.24577764 -51.37590981 90.31087303 C-54.84010554 90.34212401 -58.30340813 90.38447657 -61.76708984 90.45263672 C-65.75347014 90.53058757 -69.73949486 90.55946987 -73.7265625 90.5859375 C-74.96427399 90.61690521 -76.20198547 90.64787292 -77.47720337 90.67977905 C-87.07997876 90.68352822 -87.07997876 90.68352822 -90.7800293 87.11914062 C-93 84 -93 84 -93.79296875 81.5078125 C-92.51449995 77.4645762 -89.54445177 75.47732027 -86.3125 72.875 C-85.2918042 72.02349365 -85.2918042 72.02349365 -84.25048828 71.15478516 C-82.84878352 69.98664348 -81.44216309 68.82437585 -80.03076172 67.66796875 C-77.64926779 65.71192565 -75.30080193 63.71963897 -72.95532227 61.72070312 C-71.37039082 60.37107512 -69.77986984 59.0283403 -68.1875 57.6875 C-66.01674699 55.85893466 -63.85034592 54.02541133 -61.6875 52.1875 C-56.68053611 47.93485876 -51.66102871 43.70552114 -46.5625 39.5625 C-41.14429421 35.15086945 -35.8472915 30.60676358 -30.55078125 26.05078125 C-22.20858883 18.875903 -13.80473086 11.78601423 -5.2421875 4.875 C-3.38639939 3.32312144 -1.67006579 1.74647403 0 0 Z " fill="#010101" transform="translate(253,7)"/>
<path d="M0 0 C4.25267694 0.99637326 6.15239797 3.58508245 8.734375 6.88671875 C9.24516602 7.51586182 9.75595703 8.14500488 10.28222656 8.79321289 C11.33950216 10.10236885 12.38860573 11.41816412 13.4296875 12.74023438 C14.91695828 14.6142703 16.44262432 16.44804433 17.984375 18.27734375 C18.90262196 19.39583992 19.8193606 20.51557656 20.734375 21.63671875 C21.55421875 22.63574219 22.3740625 23.63476562 23.21875 24.6640625 C25.39294521 28.40156179 25.69858789 30.44329261 24.984375 34.69921875 C22.9296875 37.0703125 22.9296875 37.0703125 20.109375 39.13671875 C19.11550781 39.88695312 18.12164062 40.6371875 17.09765625 41.41015625 C16.07027344 42.16554687 15.04289062 42.9209375 13.984375 43.69921875 C12.08210255 45.21199024 10.18574593 46.73224673 8.296875 48.26171875 C6.85988032 49.40818574 5.42257994 50.55427035 3.984375 51.69921875 C0.9725148 50.37711584 -0.82102631 49.06532372 -2.86328125 46.49609375 C-3.38132324 45.8518042 -3.89936523 45.20751465 -4.43310547 44.54370117 C-4.97596191 43.85252197 -5.51881836 43.16134277 -6.078125 42.44921875 C-6.64160645 41.74063721 -7.20508789 41.03205566 -7.78564453 40.30200195 C-8.95283464 38.83262512 -10.11719788 37.3609986 -11.27880859 35.88720703 C-12.94782171 33.78463527 -14.64240983 31.70604652 -16.34765625 29.6328125 C-17.362294 28.38437039 -18.37663156 27.13568423 -19.390625 25.88671875 C-19.87281494 25.30696289 -20.35500488 24.72720703 -20.85180664 24.12988281 C-22.1640625 22.4921875 -22.1640625 22.4921875 -24.015625 19.69921875 C-22.63535533 15.55840973 -19.69190899 13.86162971 -16.328125 11.32421875 C-15.09438431 10.37977793 -13.86130584 9.43447139 -12.62890625 8.48828125 C-11.7155249 7.79847168 -11.7155249 7.79847168 -10.78369141 7.09472656 C-9.08275066 5.75220001 -7.52310496 4.31848534 -5.93359375 2.84765625 C-3.015625 0.69921875 -3.015625 0.69921875 0 0 Z " fill="#FCF8F8" transform="translate(216.015625,189.30078125)"/>
<path d="M0 0 C3.73931968 2.75759194 7.41913439 6.53355526 8.5078125 11.15625 C8.5 13.0625 8.5 13.0625 8 16 C9.10601562 15.86464844 9.10601562 15.86464844 10.234375 15.7265625 C13.98889813 16.09777241 14.88384429 17.51213221 17.25 20.375 C17.93578125 21.18710938 18.6215625 21.99921875 19.328125 22.8359375 C22.04870548 26.35743654 22.43047515 28.54430264 22 33 C20.41796875 35.01953125 20.41796875 35.01953125 18.1875 36.8125 C17.37152344 37.47765625 16.55554688 38.1428125 15.71484375 38.828125 C14.37099609 39.90320313 14.37099609 39.90320313 13 41 C12.05253906 41.84046875 11.10507813 42.6809375 10.12890625 43.546875 C9.17886719 44.37703125 8.22882813 45.2071875 7.25 46.0625 C6.36828125 46.83722656 5.4865625 47.61195313 4.578125 48.41015625 C2 50 2 50 -0.43359375 50.2109375 C-4.47222684 48.30534198 -6.63988467 45.06030797 -9.3125 41.5625 C-9.88210449 40.83836914 -10.45170898 40.11423828 -11.03857422 39.36816406 C-12.17715295 37.91953315 -13.31072323 36.46695014 -14.43896484 35.01025391 C-16.46861362 32.39653354 -18.5450787 29.82385437 -20.625 27.25 C-22.79940719 24.53436483 -24.92471965 21.79219538 -27 19 C-25.5860742 15.67554786 -23.94950768 13.84910346 -21.15625 11.58203125 C-20.40472656 10.96779297 -19.65320313 10.35355469 -18.87890625 9.72070312 C-18.09386719 9.09099609 -17.30882812 8.46128906 -16.5 7.8125 C-15.71496094 7.17119141 -14.92992187 6.52988281 -14.12109375 5.86914062 C-6.13549027 -0.61659394 -6.13549027 -0.61659394 0 0 Z " fill="#FCF8F8" transform="translate(191,213)"/>
<path d="M0 0 C-1.83416815 4.73826773 -3.87162362 9.38725547 -6 14 C-6.42023438 15.01835937 -6.84046875 16.03671875 -7.2734375 17.0859375 C-9.35496834 20.59910946 -11.00717508 21.50520039 -14.6875 23.1875 C-15.76128906 23.68507812 -16.83507812 24.18265625 -17.94140625 24.6953125 C-20.93919594 25.97406315 -23.94191429 27.14695336 -27.015625 28.2265625 C-29.38803323 29.1512413 -31.60912314 30.27641403 -33.875 31.4375 C-38.00042808 33.55067799 -42.17299843 35.29268121 -46.4921875 36.96484375 C-49.97872805 38.40399211 -53.29346067 40.13643264 -56.6484375 41.85546875 C-59.25932489 43.12621626 -61.93967479 44.08900287 -64.67578125 45.0546875 C-67.85816616 46.34903565 -70.88439089 47.93138937 -73.9375 49.5 C-79.18442573 52.19074912 -84.33741703 54.34027741 -90 56 C-90 54.68 -90 53.36 -90 52 C-87.3470529 49.48496313 -84.28350464 48.07403392 -80.9765625 46.57421875 C-79.97020752 46.11426514 -78.96385254 45.65431152 -77.92700195 45.18041992 C-76.83734131 44.68775635 -75.74768066 44.19509277 -74.625 43.6875 C-72.27702677 42.6152772 -69.92938395 41.54233061 -67.58203125 40.46875 C-66.97000351 40.18948166 -66.35797577 39.91021332 -65.72740173 39.6224823 C-58.56901912 36.35389143 -51.440931 33.02076987 -44.3125 29.6875 C-43.09784377 29.11998282 -41.88316332 28.55251746 -40.66845703 27.98510742 C-39.49524902 27.43701416 -38.32204102 26.8889209 -37.11328125 26.32421875 C-35.96166504 25.78716309 -34.81004883 25.25010742 -33.62353516 24.69677734 C-31.02475091 23.48292402 -28.43200876 22.25688681 -25.84130859 21.02587891 C-25.15473679 20.70126175 -24.46816498 20.37664459 -23.76078796 20.04219055 C-22.4326625 19.41410605 -21.10594722 18.78302869 -19.78083801 18.14860535 C-15.22521933 16 -15.22521933 16 -13 16 C-12.62875 14.700625 -12.62875 14.700625 -12.25 13.375 C-10.93221387 9.81697746 -9.19813178 7.0773845 -7 4 C-9.31 4 -11.62 4 -14 4 C-14 3.34 -14 2.68 -14 2 C-9.15758367 0.66416101 -5.06562383 -0.25328119 0 0 Z " fill="#E9E2E2" transform="translate(160,197)"/>
<path d="M0 0 C4 0 4 0 6.25 1.9375 C7.17709283 2.948874 8.09241698 3.97108235 9 5 C9.56460938 5.6084375 10.12921875 6.216875 10.7109375 6.84375 C16.86875498 13.57964831 22.41883635 20.78757712 28 28 C31.33376285 26.50133597 33.93097416 24.56626964 36.75 22.25 C39.92451854 19.64839753 43.12264664 17.20463426 46.5 14.875 C49.90564474 12.3756962 51.19084155 10.24808185 52 6 C52.33 6 52.66 6 53 6 C52.67 8.31 52.34 10.62 52 13 C52.66 13.33 53.32 13.66 54 14 C47.53421168 19.94302246 40.92290391 25.59729142 34 31 C32.69869141 32.01707031 32.69869141 32.01707031 31.37109375 33.0546875 C29.25058008 34.7072944 27.12709049 36.35587209 25 38 C24.34 37.67 23.68 37.34 23 37 C23.33 36.34 23.66 35.68 24 35 C23.01380025 28.23748742 19.16856229 22.42892321 14 18 C10.82130636 17.61831674 10.82130636 17.61831674 8 18 C8.165 16.865625 8.33 15.73125 8.5 14.5625 C8.56247405 10.18931664 6.89179367 8.23940009 4 5.0625 C2.88625 3.93521484 2.88625 3.93521484 1.75 2.78515625 C0 1 0 1 0 0 Z " fill="#CB2727" transform="translate(190,212)"/>
<path d="M0 0 C0 3.79048501 -1.12178756 4.68958986 -3.4375 7.625 C-7.04976469 12.57729837 -7.90199832 15.92389611 -8 22 C-10.54093855 22.64881448 -13.08268273 23.29412899 -15.625 23.9375 C-16.33785156 24.11990234 -17.05070312 24.30230469 -17.78515625 24.49023438 C-21.83969313 25.51316799 -25.85947059 26.37957367 -30 27 C-28.86212155 23.58636466 -28.19911704 23.16640295 -25.375 21.125 C-20.13957284 17.19422109 -15.23882535 12.93121556 -10.31787109 8.61962891 C-6.93864427 5.66335846 -3.53426776 2.77210696 0 0 Z " fill="#EBEBEB" transform="translate(145,146)"/>
<path d="M0 0 C0.33 0 0.66 0 1 0 C1.125 2.375 1.125 2.375 1 5 C0.34 5.66 -0.32 6.32 -1 7 C-1 7.825 -1 8.65 -1 9.5 C-1 10.325 -1 11.15 -1 12 C-1.66 12.66 -2.32 13.32 -3 14 C-3 14.825 -3 15.65 -3 16.5 C-3 17.325 -3 18.15 -3 19 C-3.66 19.66 -4.32 20.32 -5 21 C-5.25404546 22.84182957 -5.50497627 24.68595928 -5.65625 26.5390625 C-6 29 -6 29 -7.2734375 32.59765625 C-8.7215351 38.21983625 -6.34365056 42.68231935 -4.125 47.8125 C-3.35283859 49.67154868 -2.58442978 51.53216178 -1.8203125 53.39453125 C-1.47242676 54.20768799 -1.12454102 55.02084473 -0.76611328 55.85864258 C0 58 0 58 0 61 C-2.12317317 58.87682683 -2.84760945 57.30392909 -4 54.5625 C-5.17758428 51.77033727 -6.30353281 49.54470078 -8 47 C-13.08388743 36.07905663 -9.22034738 26.52207102 -5.9375 15.4375 C-5.55595974 14.12975575 -5.17509512 12.82181418 -4.79492188 11.51367188 C-3.86988661 8.34044964 -2.93809591 5.16938079 -2 2 C-1.34 2 -0.68 2 0 2 C0 1.34 0 0.68 0 0 Z " fill="#0E0E0E" transform="translate(22,217)"/>
<path d="M0 0 C0.99 0.33 1.98 0.66 3 1 C1.625 2.5 1.625 2.5 0 4 C-0.66 4 -1.32 4 -2 4 C-2.2475 4.639375 -2.495 5.27875 -2.75 5.9375 C-4.32987939 8.544301 -5.16780311 8.29195078 -8 9 C-8.6837045 10.32467746 -9.34964186 11.65863633 -10 13 C-11.32407669 13.68486725 -12.65909241 14.34870203 -14 15 C-14.86625 15.86625 -15.7325 16.7325 -16.625 17.625 C-17.40875 18.40875 -18.1925 19.1925 -19 20 C-19.66 20 -20.32 20 -21 20 C-21.2475 20.639375 -21.495 21.27875 -21.75 21.9375 C-23.32987939 24.544301 -24.16780311 24.29195078 -27 25 C-27.6837045 26.32467746 -28.34964186 27.65863633 -29 29 C-30.33333333 29.66666667 -31.66666667 30.33333333 -33 31 C-33.680625 31.86625 -34.36125 32.7325 -35.0625 33.625 C-35.701875 34.40875 -36.34125 35.1925 -37 36 C-37.99 36 -38.98 36 -40 36 C-40.4021875 36.9590625 -40.4021875 36.9590625 -40.8125 37.9375 C-42 40 -42 40 -45 41 C-45 40.01 -45 39.02 -45 38 C-43.14810958 36.20569701 -41.31707285 34.60762773 -39.3125 33 C-38.1130576 32.01329264 -36.91384522 31.02630561 -35.71484375 30.0390625 C-35.09722168 29.53536133 -34.47959961 29.03166016 -33.84326172 28.51269531 C-30.98904593 26.17034816 -28.18476521 23.77029305 -25.375 21.375 C-20.47152372 17.21492075 -15.51177652 13.12977984 -10.51171875 9.0859375 C-7.45067663 6.54379677 -4.53575008 3.86247359 -1.65625 1.1171875 C-0.83640625 0.56417969 -0.83640625 0.56417969 0 0 Z " fill="#171717" transform="translate(220,35)"/>
<path d="M0 0 C0.66 0.33 1.32 0.66 2 1 C1.64808594 1.89976563 1.29617187 2.79953125 0.93359375 3.7265625 C-3.54044258 15.33023177 -7.31836788 27.12419112 -11 39 C-11.99 39 -12.98 39 -14 39 C-12.47564918 31.39364337 -10.09594664 24.36650766 -7.390625 17.109375 C-6.93042969 15.8409375 -6.93042969 15.8409375 -6.4609375 14.546875 C-6.18040527 13.79245117 -5.89987305 13.03802734 -5.61083984 12.26074219 C-4.87685441 9.97036752 -4.87685441 9.97036752 -5.06494141 7.39160156 C-5 5 -5 5 -2.5 2.1875 C-1.675 1.465625 -0.85 0.74375 0 0 Z M-5 6 C-5 6.99 -5 7.98 -5 9 C-6.75 10.60546875 -6.75 10.60546875 -9 12.1875 C-9.7425 12.71730469 -10.485 13.24710938 -11.25 13.79296875 C-11.8275 14.19128906 -12.405 14.58960938 -13 15 C-13.66 14.34 -14.32 13.68 -15 13 C-13.71372289 11.82739389 -12.42080217 10.6620717 -11.125 9.5 C-10.04605469 8.52546875 -10.04605469 8.52546875 -8.9453125 7.53125 C-7 6 -7 6 -5 6 Z " fill="#0C0C0C" transform="translate(253,7)"/>
<path d="M0 0 C0.66 0.33 1.32 0.66 2 1 C-1.56402367 6.26165055 -6.38681088 9.36500528 -11.5625 12.875 C-12.42552734 13.48085937 -13.28855469 14.08671875 -14.17773438 14.7109375 C-15.42200195 15.56171875 -15.42200195 15.56171875 -16.69140625 16.4296875 C-17.44623291 16.94772949 -18.20105957 17.46577148 -18.97875977 17.99951172 C-21 19 -21 19 -24 18 C-20.4597981 14.10024635 -16.3427489 11.35233418 -12 8.4375 C-10.5828339 7.47860229 -9.16615229 6.51898808 -7.75 5.55859375 C-7.09515625 5.11499512 -6.4403125 4.67139648 -5.765625 4.21435547 C-3.80122285 2.86328574 -1.88591054 1.45863394 0 0 Z M-26 18 C-25.34 18.33 -24.68 18.66 -24 19 C-25.65 20.65 -27.3 22.3 -29 24 C-29.66 23.34 -30.32 22.68 -31 22 C-29.35 20.68 -27.7 19.36 -26 18 Z M-31 23 C-32.04725811 26.25813633 -33.57016768 27.53606177 -36.4375 29.1875 C-40 31 -40 31 -43 32 C-43 31.34 -43 30.68 -43 30 C-40.8828125 28.2734375 -40.8828125 28.2734375 -38.125 26.375 C-37.22007813 25.74335938 -36.31515625 25.11171875 -35.3828125 24.4609375 C-33 23 -33 23 -31 23 Z " fill="#161616" transform="translate(64,184)"/>
<path d="M0 0 C-0.33 1.65 -0.66 3.3 -1 5 C-1.99 5.33 -2.98 5.66 -4 6 C-3.67 4.68 -3.34 3.36 -3 2 C-35.01 2 -67.02 2 -100 2 C-100 1.67 -100 1.34 -100 1 C-87.25692935 0.86949659 -74.51385759 0.73910223 -61.77078438 0.60884857 C-55.85418773 0.54836846 -49.93759147 0.48785025 -44.02099609 0.42724609 C-38.31519535 0.36880251 -32.60939361 0.31045752 -26.90359116 0.25218201 C-24.72261392 0.22988932 -22.54163705 0.20756061 -20.36066055 0.18519592 C-17.31482283 0.15396862 -14.26898385 0.12286737 -11.22314453 0.09179688 C-10.31396271 0.08244614 -9.40478088 0.0730954 -8.4680481 0.0634613 C-2.22810432 0 -2.22810432 0 0 0 Z " fill="#1B1B1B" transform="translate(261,102)"/>
<path d="M0 0 C1.16211953 3.48635859 0.80475239 4.32437009 -0.33935547 7.71508789 C-0.65653534 8.66940201 -0.97371521 9.62371613 -1.30050659 10.60694885 C-1.65251129 11.63513229 -2.00451599 12.66331573 -2.3671875 13.72265625 C-2.89845749 15.3072892 -2.89845749 15.3072892 -3.44046021 16.92393494 C-4.57693122 20.3063442 -5.72599539 23.68433049 -6.875 27.0625 C-7.64271658 29.34413555 -8.40965357 31.62603357 -9.17578125 33.90820312 C-10.57993114 38.0784501 -11.98503798 42.2483445 -13.40185547 46.41430664 C-13.68688934 47.25353165 -13.97192322 48.09275665 -14.26559448 48.95741272 C-15 51 -15 51 -16 53 C-6.1 53.33 3.8 53.66 14 54 C14 54.33 14 54.66 14 55 C3.44 55 -7.12 55 -18 55 C-15.74985376 44.87434193 -15.74985376 44.87434193 -14.51953125 41.29394531 C-14.24584717 40.48991272 -13.97216309 39.68588013 -13.69018555 38.85748291 C-13.40054932 38.0227948 -13.11091309 37.18810669 -12.8125 36.328125 C-12.35774292 34.99995758 -12.35774292 34.99995758 -11.89379883 33.6449585 C-11.25729576 31.78873697 -10.61851223 29.93329598 -9.97753906 28.07861328 C-8.99842784 25.24545079 -8.02594718 22.41008139 -7.0546875 19.57421875 C-6.43267242 17.76289004 -5.8102894 15.95168763 -5.1875 14.140625 C-4.89786377 13.29783997 -4.60822754 12.45505493 -4.30981445 11.58673096 C-2.96048513 7.68481772 -1.58386186 3.81478924 0 0 Z " fill="#FFFFFF" transform="translate(249,40)"/>
<path d="M0 0 C0.66 0 1.32 0 2 0 C3.35373964 1.50903877 4.63443401 3.08412698 5.875 4.6875 C6.55304688 5.55761719 7.23109375 6.42773438 7.9296875 7.32421875 C8.95449219 8.64873047 8.95449219 8.64873047 10 10 C10.74507812 10.89332031 11.49015625 11.78664062 12.2578125 12.70703125 C14 15 14 15 14 17 C12.02 17.99 12.02 17.99 10 19 C8.17878563 16.92375562 6.3680994 14.83975198 4.5625 12.75 C3.7880957 11.87021484 3.7880957 11.87021484 2.99804688 10.97265625 C2.50498047 10.39902344 2.01191406 9.82539063 1.50390625 9.234375 C1.04830322 8.71069336 0.5927002 8.18701172 0.12329102 7.64746094 C-1.1781299 5.73874798 -1.73908782 4.29602715 -2 2 C-1.34 1.34 -0.68 0.68 0 0 Z " fill="#CC2929" transform="translate(212,205)"/>
<path d="M0 0 C0 1.98 0 3.96 0 6 C-0.99 6 -1.98 6 -3 6 C-5.08333333 6.16666667 -5.08333333 6.16666667 -7 7 C-7.33 7.66 -7.66 8.32 -8 9 C-8.33 9.66 -8.66 10.32 -9 11 C-10.33333333 11.33333333 -11.66666667 11.66666667 -13 12 C-13.33 12.66 -13.66 13.32 -14 14 C-14.33 14.66 -14.66 15.32 -15 16 C-16.33333333 16.33333333 -17.66666667 16.66666667 -19 17 C-19.70394612 18.31403276 -20.36345658 19.6520257 -21 21 C-25.89971347 26.54441261 -25.89971347 26.54441261 -30 27 C-26.95800661 21.90962915 -23.4031529 18.41739907 -18.875 14.625 C-18.2135498 14.06208252 -17.55209961 13.49916504 -16.87060547 12.91918945 C-1.62518465 0 -1.62518465 0 0 0 Z " fill="#191919" transform="translate(125,116)"/>
<path d="M0 0 C0.495 1.98 0.495 1.98 1 4 C-0.00160156 3.72285156 -1.00320312 3.44570312 -2.03515625 3.16015625 C-3.37754409 2.79405048 -4.71999543 2.42817749 -6.0625 2.0625 C-6.71927734 1.88009766 -7.37605469 1.69769531 -8.05273438 1.50976562 C-15.63152725 -0.5436019 -23.11942427 -1.19983641 -30.9375 -1.5625 C-32.24944336 -1.62727539 -32.24944336 -1.62727539 -33.58789062 -1.69335938 C-35.72511995 -1.79846901 -37.86254238 -1.89963985 -40 -2 C-40 -2.33 -40 -2.66 -40 -3 C-25.66866976 -4.44604413 -13.73304367 -4.25477425 0 0 Z " fill="#150303" transform="translate(231,181)"/>
<path d="M0 0 C-2.48073812 1.24036906 -4.34306604 1.23858095 -7.1171875 1.38891602 C-8.18590088 1.44890274 -9.25461426 1.50888947 -10.35571289 1.57069397 C-11.51707764 1.63115402 -12.67844238 1.69161407 -13.875 1.75390625 C-15.66635376 1.85166603 -15.66635376 1.85166603 -17.49389648 1.95140076 C-20.02918289 2.08877974 -22.56458843 2.22397454 -25.10009766 2.35717773 C-28.95636577 2.56020274 -32.81216747 2.77073567 -36.66796875 2.98242188 C-39.13278828 3.11503422 -41.59763138 3.24720935 -44.0625 3.37890625 C-45.78025635 3.47263268 -45.78025635 3.47263268 -47.53271484 3.56825256 C-54.02925382 3.90577666 -60.4947829 4.08197976 -67 4 C-67 3.67 -67 3.34 -67 3 C-63.00227898 2.27778461 -59.09781258 1.81284289 -55.04223633 1.59521484 C-53.3156353 1.50039322 -53.3156353 1.50039322 -51.55415344 1.40365601 C-49.71170296 1.30826035 -49.71170296 1.30826035 -47.83203125 1.2109375 C-45.9243824 1.10962021 -45.9243824 1.10962021 -43.97819519 1.0062561 C-41.29616668 0.86502575 -38.61410703 0.72529878 -35.93188477 0.58789062 C-32.49499965 0.41144909 -29.05862476 0.22658186 -25.62230396 0.03951073 C-22.33831954 -0.13776778 -19.05390551 -0.30668399 -15.76953125 -0.4765625 C-14.53515823 -0.54420807 -13.30078522 -0.61185364 -12.02900696 -0.68154907 C-10.31659065 -0.76691422 -10.31659065 -0.76691422 -8.56958008 -0.85400391 C-7.56397537 -0.90650299 -6.55837067 -0.95900208 -5.52229309 -1.01309204 C-3 -1 -3 -1 0 0 Z " fill="#FFFFFF" transform="translate(196,274)"/>
<path d="M0 0 C0.66 0.33 1.32 0.66 2 1 C1.34 1.66 0.68 2.32 0 3 C20.79 3.33 41.58 3.66 63 4 C63 4.33 63 4.66 63 5 C40.56 5 18.12 5 -5 5 C-5 4.34 -5 3.68 -5 3 C-2.625 1.3125 -2.625 1.3125 0 0 Z " fill="#D7D7D7" transform="translate(225,132)"/>
<path d="M0 0 C0.66 0.66 1.32 1.32 2 2 C0.67500482 10.53885783 -2.36072926 18.79005476 -5 27 C-5.66 27 -6.32 27 -7 27 C-7.66 27.66 -8.32 28.32 -9 29 C-7.6393319 22.24476394 -5.71290027 15.91424405 -3.375 9.4375 C-3.05015625 8.52419922 -2.7253125 7.61089844 -2.390625 6.66992188 C-1.59846371 4.44488059 -0.8015341 2.22167825 0 0 Z " fill="#0F0F0F" transform="translate(233,60)"/>
<path d="M0 0 C0 0.66 0 1.32 0 2 C-0.61746094 2.18433594 -1.23492187 2.36867188 -1.87109375 2.55859375 C-8.52903952 4.83871216 -12.48399638 7.96442456 -17.1875 13.171875 C-17.785625 13.77515625 -18.38375 14.3784375 -19 15 C-19.66 15 -20.32 15 -21 15 C-21.6987693 13.23358317 -22.38366583 11.46167336 -23.0625 9.6875 C-23.44535156 8.70136719 -23.82820313 7.71523438 -24.22265625 6.69921875 C-25 4 -25 4 -24 1 C-22.35 4.63 -20.7 8.26 -19 12 C-17.845 10.576875 -16.69 9.15375 -15.5 7.6875 C-11.00891376 2.61408819 -6.99006794 0 0 0 Z " fill="#030303" transform="translate(41,265)"/>
<path d="M0 0 C0.99 0.33 1.98 0.66 3 1 C4.39579273 1.11294746 5.79599909 1.17589187 7.19604492 1.20532227 C8.03668991 1.22526749 8.8773349 1.24521271 9.74345398 1.26576233 C10.64666885 1.28247482 11.54988373 1.29918732 12.48046875 1.31640625 C13.87245232 1.3475779 13.87245232 1.3475779 15.29255676 1.37937927 C18.2574624 1.44477323 21.22245672 1.50371262 24.1875 1.5625 C26.1972748 1.60569487 28.20704063 1.64930947 30.21679688 1.69335938 C35.14444032 1.80044427 40.07217299 1.90174045 45 2 C45 2.33 45 2.66 45 3 C29.16 3 13.32 3 -3 3 C-2.01 2.01 -1.02 1.02 0 0 Z " fill="#D8D8D8" transform="translate(244,176)"/>
<path d="M0 0 C4 0 4 0 6.5 2.25 C7.325 3.1575 8.15 4.065 9 5 C10.1446875 6.1446875 10.1446875 6.1446875 11.3125 7.3125 C11.869375 7.869375 12.42625 8.42625 13 9 C12.67 9.99 12.34 10.98 12 12 C11.67 11.67 11.34 11.34 11 11 C10.67 12.32 10.34 13.64 10 15 C9.649375 14.175 9.29875 13.35 8.9375 12.5 C7.0576878 8.67649848 4.29214155 5.75232777 1.42578125 2.63671875 C0 1 0 1 0 0 Z " fill="#CB2020" transform="translate(190,212)"/>
<path d="M0 0 C0.83050873 0.02220612 1.66101746 0.04441223 2.51669312 0.06729126 C3.92792953 0.09754898 3.92792953 0.09754898 5.36767578 0.12841797 C6.38542084 0.16061432 7.40316589 0.19281067 8.45175171 0.22598267 C10.01232803 0.26352158 10.01232803 0.26352158 11.60443115 0.30181885 C14.93667423 0.3841771 18.26833852 0.48070576 21.60018921 0.57754517 C23.85537368 0.63576852 26.1105821 0.69307212 28.36581421 0.74942017 C33.90259489 0.8897793 39.43896542 1.04178316 44.97518921 1.20254517 C44.97518921 1.53254517 44.97518921 1.86254517 44.97518921 2.20254517 C28.80518921 2.20254517 12.63518921 2.20254517 -4.02481079 2.20254517 C-2.02481079 0.20254517 -2.02481079 0.20254517 0 0 Z " fill="#FFFFFF" transform="translate(245.02481079101563,128.79745483398438)"/>
<path d="M0 0 C2.49361571 1.20381448 4.68143083 2.45428722 7 4 C7 4.66 7 5.32 7 6 C7.804375 6.28875 8.60875 6.5775 9.4375 6.875 C12 8 12 8 13 10 C14.64142963 11.0409066 16.30712215 12.04504326 18 13 C17.01 13.66 16.02 14.32 15 15 C14.50371094 14.55269531 14.00742187 14.10539063 13.49609375 13.64453125 C10.11002302 10.63112105 6.7714778 7.77203117 3 5.25 C2.01 4.5075 1.02 3.765 0 3 C0 2.01 0 1.02 0 0 Z " fill="#130202" transform="translate(245,193)"/>
<path d="M0 0 C0.66 0.33 1.32 0.66 2 1 C1.319375 1.556875 1.319375 1.556875 0.625 2.125 C-1.47029394 4.54264685 -2.12013285 6.95430602 -3 10 C-3.66 8.68 -4.32 7.36 -5 6 C-3.35 4.02 -1.7 2.04 0 0 Z M-5 6 C-5 6.99 -5 7.98 -5 9 C-6.75 10.60546875 -6.75 10.60546875 -9 12.1875 C-9.7425 12.71730469 -10.485 13.24710938 -11.25 13.79296875 C-11.8275 14.19128906 -12.405 14.58960938 -13 15 C-13.66 14.34 -14.32 13.68 -15 13 C-13.71372289 11.82739389 -12.42080217 10.6620717 -11.125 9.5 C-10.04605469 8.52546875 -10.04605469 8.52546875 -8.9453125 7.53125 C-7 6 -7 6 -5 6 Z " fill="#262626" transform="translate(253,7)"/>
<path d="M0 0 C2.9008605 0.35298081 3.89516676 0.88728296 5.921875 3.06640625 C6.52515625 3.89011719 7.1284375 4.71382812 7.75 5.5625 C8.36359375 6.38878906 8.9771875 7.21507812 9.609375 8.06640625 C10.06828125 8.70449219 10.5271875 9.34257812 11 10 C10.01 10.99 9.02 11.98 8 13 C4.15383526 8.91193811 1.36410449 5.59282842 0 0 Z " fill="#CB3232" transform="translate(213,210)"/>
<path d="M0 0 C0.99 0.33 1.98 0.66 3 1 C2.2575 1.721875 1.515 2.44375 0.75 3.1875 C-2.01114038 5.84276138 -2.01114038 5.84276138 -3.8125 8.6875 C-6.92278312 11.97551359 -9.59490877 12.19239994 -14 13 C-14.33 12.01 -14.66 11.02 -15 10 C-14.00419922 9.67128906 -14.00419922 9.67128906 -12.98828125 9.3359375 C-6.96910531 7.17430643 -3.61704333 5.30499689 0 0 Z " fill="#0F0909" transform="translate(167,185)"/>
<path d="M0 0 C0.33 0 0.66 0 1 0 C0.67 2.31 0.34 4.62 0 7 C0.66 7.33 1.32 7.66 2 8 C-0.31 9.98 -2.62 11.96 -5 14 C-5.66 13.67 -6.32 13.34 -7 13 C-6.52493804 8.72444237 -3.93067678 6.93067678 -1 4 C-0.13880866 1.82653432 -0.13880866 1.82653432 0 0 Z " fill="#CA2121" transform="translate(242,218)"/>
<path d="M0 0 C0.66 0.33 1.32 0.66 2 1 C1.67 1.33 1.34 1.66 1 2 C1.99 2.66 2.98 3.32 4 4 C2.54618103 4.69699552 1.08677047 5.38233866 -0.375 6.0625 C-1.18710938 6.44535156 -1.99921875 6.82820312 -2.8359375 7.22265625 C-3.55007812 7.47917969 -4.26421875 7.73570312 -5 8 C-5.66 7.67 -6.32 7.34 -7 7 C-7 6.01 -7 5.02 -7 4 C-4.68806023 1.92722641 -2.97064418 0.99021473 0 0 Z " fill="#DECBCB" transform="translate(77,245)"/>
<path d="M0 0 C1.12067871 0.05236816 2.24135742 0.10473633 3.39599609 0.15869141 C4.60771484 0.21025391 5.81943359 0.26181641 7.06787109 0.31494141 C8.97439453 0.41162109 8.97439453 0.41162109 10.91943359 0.51025391 C12.19818359 0.56697266 13.47693359 0.62369141 14.79443359 0.68212891 C17.96164046 0.82394414 21.12809473 0.97538886 24.29443359 1.13525391 C24.62443359 1.79525391 24.95443359 2.45525391 25.29443359 3.13525391 C10.44443359 2.64025391 10.44443359 2.64025391 -4.70556641 2.13525391 C-2.70556641 0.13525391 -2.70556641 0.13525391 0 0 Z " fill="#FFFFFF" transform="translate(267.70556640625,170.86474609375)"/>
<path d="M0 0 C4.875 4.625 4.875 4.625 6 8 C3.36 8.33 0.72 8.66 -2 9 C-1.51421457 5.87709365 -1.0013988 3.00419641 0 0 Z " fill="#CD3939" transform="translate(200,221)"/>
<path d="M0 0 C0.66 0.66 1.32 1.32 2 2 C1.79296875 4.05859375 1.79296875 4.05859375 1.1875 6.4375 C0.99542969 7.21996094 0.80335938 8.00242187 0.60546875 8.80859375 C0.12308568 10.55450924 -0.42720734 12.28162202 -1 14 C-1.66 14 -2.32 14 -3 14 C-2.48594831 9.03083364 -1.76615118 4.70973649 0 0 Z " fill="#0E0E0E" transform="translate(233,60)"/>
<path d="M0 0 C0.99 0.33 1.98 0.66 3 1 C0.69 4.3 -1.62 7.6 -4 11 C-4.99 10.67 -5.98 10.34 -7 10 C-3.535 5.05 -3.535 5.05 0 0 Z " fill="#181818" transform="translate(144,149)"/>
<path d="M0 0 C-2.55081829 2.97595467 -5.43434437 4.44002566 -9 6 C-9.99 6 -10.98 6 -12 6 C-11 3 -11 3 -9.00390625 1.796875 C-8.19824219 1.45140625 -7.39257812 1.1059375 -6.5625 0.75 C-5.75941406 0.39421875 -4.95632812 0.0384375 -4.12890625 -0.328125 C-2 -1 -2 -1 0 0 Z " fill="#161616" transform="translate(99,234)"/>
<path d="M0 0 C0.57234375 0.23589844 1.1446875 0.47179687 1.734375 0.71484375 C1.0125 1.10671875 0.290625 1.49859375 -0.453125 1.90234375 C-3.492951 3.86134273 -5.78690227 6.09447972 -8.265625 8.71484375 C-8.925625 8.05484375 -9.585625 7.39484375 -10.265625 6.71484375 C-9.03009224 5.51229851 -7.77660161 4.32818143 -6.515625 3.15234375 C-5.81953125 2.49105469 -5.1234375 1.82976562 -4.40625 1.1484375 C-2.265625 -0.28515625 -2.265625 -0.28515625 0 0 Z " fill="#171717" transform="translate(171.265625,78.28515625)"/>
<path d="M0 0 C0.66 0.66 1.32 1.32 2 2 C1.7578125 4.3828125 1.7578125 4.3828125 1.125 7.125 C0.92132813 8.03507812 0.71765625 8.94515625 0.5078125 9.8828125 C0.34023437 10.58148438 0.17265625 11.28015625 0 12 C-0.99 12 -1.98 12 -3 12 C-2.68950274 10.56206608 -2.3765224 9.1246682 -2.0625 7.6875 C-1.88847656 6.88699219 -1.71445313 6.08648437 -1.53515625 5.26171875 C-1 3 -1 3 0 0 Z " fill="#181818" transform="translate(242,34)"/>
<path d="M0 0 C2 1.375 2 1.375 4 3 C4 3.66 4 4.32 4 5 C2.35 5.33 0.7 5.66 -1 6 C-1.66 4.68 -2.32 3.36 -3 2 C-2.01 1.34 -1.02 0.68 0 0 Z " fill="#CD3737" transform="translate(194,240)"/>
<path d="M0 0 C0.66 0.33 1.32 0.66 2 1 C-0.72478774 4.36591427 -4.06856792 5.44226276 -8 7 C-8.33 6.01 -8.66 5.02 -9 4 C-7.54618103 3.30300448 -6.08677047 2.61766134 -4.625 1.9375 C-3.40683594 1.36322266 -3.40683594 1.36322266 -2.1640625 0.77734375 C-1.44992188 0.52082031 -0.73578125 0.26429688 0 0 Z " fill="#161616" transform="translate(127,219)"/>
<path d="M0 0 C0.99 0.33 1.98 0.66 3 1 C5.39254576 1.22560676 7.78928123 1.40848595 10.1875 1.5625 C12.09595703 1.68818359 12.09595703 1.68818359 14.04296875 1.81640625 C15.01878906 1.87699219 15.99460937 1.93757812 17 2 C17 2.33 17 2.66 17 3 C10.4 3 3.8 3 -3 3 C-2.01 2.01 -1.02 1.02 0 0 Z " fill="#D2D2D2" transform="translate(244,176)"/>
<path d="M0 0 C-1.09898702 3.29696105 -1.94597387 4.04670589 -4.5625 6.1875 C-5.20316406 6.71730469 -5.84382812 7.24710937 -6.50390625 7.79296875 C-6.99761719 8.19128906 -7.49132812 8.58960937 -8 9 C-8.66 8.34 -9.32 7.68 -10 7 C-8.71372289 5.82739389 -7.42080217 4.6620717 -6.125 3.5 C-5.04605469 2.52546875 -5.04605469 2.52546875 -3.9453125 1.53125 C-2 0 -2 0 0 0 Z " fill="#1A1A1A" transform="translate(155,91)"/>
<path d="M0 0 C0.99 0.33 1.98 0.66 3 1 C1.625 2.5 1.625 2.5 0 4 C-0.66 4 -1.32 4 -2 4 C-2.268125 4.639375 -2.53625 5.27875 -2.8125 5.9375 C-4 8 -4 8 -7 9 C-7 6 -7 6 -5.57421875 4.359375 C-4.95160156 3.82828125 -4.32898438 3.2971875 -3.6875 2.75 C-3.07261719 2.20859375 -2.45773438 1.6671875 -1.82421875 1.109375 C-1.22222656 0.74328125 -0.62023437 0.3771875 0 0 Z " fill="#1D1D1D" transform="translate(233,24)"/>
<path d="M0 0 C0.99 0 1.98 0 3 0 C1.34832443 3.5786304 -0.78286492 6.74820188 -3 10 C-3.66 9.01 -4.32 8.02 -5 7 C-4.24172908 5.82512964 -3.46792245 4.66027408 -2.6875 3.5 C-2.25824219 2.8503125 -1.82898438 2.200625 -1.38671875 1.53125 C-0.70029297 0.77328125 -0.70029297 0.77328125 0 0 Z " fill="#1A1A1A" transform="translate(79,164)"/>
<path d="M0 0 C0.99 0 1.98 0 3 0 C1.34832443 3.5786304 -0.78286492 6.74820188 -3 10 C-3.66 9.01 -4.32 8.02 -5 7 C-4.24172908 5.82512964 -3.46792245 4.66027408 -2.6875 3.5 C-2.25824219 2.8503125 -1.82898438 2.200625 -1.38671875 1.53125 C-0.70029297 0.77328125 -0.70029297 0.77328125 0 0 Z " fill="#191919" transform="translate(87,153)"/>
<path d="M0 0 C2.66666667 2.66666667 5.33333333 5.33333333 8 8 C7.67 8.99 7.34 9.98 7 11 C5.82141137 9.9296491 4.6574639 8.84316035 3.5 7.75 C2.8503125 7.14671875 2.200625 6.5434375 1.53125 5.921875 C0 4 0 4 0 0 Z " fill="#080808" transform="translate(153,93)"/>
<path d="M0 0 C-5.86459625 2.28067632 -10.68900831 3.54405101 -17 3 C-17.99 2.34 -18.98 1.68 -20 1 C-19.02160156 1.03480469 -19.02160156 1.03480469 -18.0234375 1.0703125 C-11.90567916 1.19663789 -5.63530851 -1.71457259 0 0 Z " fill="#FFFFFF" transform="translate(73,297)"/>
<path d="M0 0 C0.99 0.33 1.98 0.66 3 1 C0.42215154 3.64752004 -1.91648098 5.94432065 -5 8 C-5.66 7.34 -6.32 6.68 -7 6 C-5.90716423 4.96704564 -4.80029421 3.94892165 -3.6875 2.9375 C-3.07261719 2.36902344 -2.45773438 1.80054688 -1.82421875 1.21484375 C-0.92123047 0.61349609 -0.92123047 0.61349609 0 0 Z " fill="#1C1C1C" transform="translate(126,159)"/>
<path d="M0 0 C0.66 0.33 1.32 0.66 2 1 C1.34 1.66 0.68 2.32 0 3 C2.64 3.33 5.28 3.66 8 4 C8 4.33 8 4.66 8 5 C3.71 5 -0.58 5 -5 5 C-5 4.34 -5 3.68 -5 3 C-2.625 1.3125 -2.625 1.3125 0 0 Z " fill="#D0D0D0" transform="translate(225,132)"/>
<path d="M0 0 C0.33 0 0.66 0 1 0 C2.35384615 6.27692308 2.35384615 6.27692308 0.5625 9.9375 C-0.2109375 10.9584375 -0.2109375 10.9584375 -1 12 C-1.66 11.67 -2.32 11.34 -3 11 C-2.01 7.37 -1.02 3.74 0 0 Z " fill="#CF4545" transform="translate(213,241)"/>
<path d="M0 0 C2.64 0.33 5.28 0.66 8 1 C7.34 2.65 6.68 4.3 6 6 C5.01 6 4.02 6 3 6 C3 5.34 3 4.68 3 4 C2.34 3.67 1.68 3.34 1 3 C0.67 2.01 0.34 1.02 0 0 Z " fill="#373737" transform="translate(145,200)"/>
<path d="M0 0 C0.99 0.33 1.98 0.66 3 1 C-0.17320782 4.53586014 -2.16743695 6.58578031 -7 7 C-4.66666667 4.66666667 -2.33333333 2.33333333 0 0 Z " fill="#191919" transform="translate(139,148)"/>
<path d="M0 0 C0.66 0.33 1.32 0.66 2 1 C-0.35277269 3.72426311 -2.62496331 4.8141763 -6 6 C-6.66 5.34 -7.32 4.68 -8 4 C-6.71349294 3.30289269 -5.42059335 2.61757124 -4.125 1.9375 C-3.40570313 1.55464844 -2.68640625 1.17179688 -1.9453125 0.77734375 C-1.30335937 0.52082031 -0.66140625 0.26429688 0 0 Z " fill="#161616" transform="translate(112,226)"/>
<path d="M0 0 C0.99 0 1.98 0 3 0 C1.62845496 2.95409701 0.01136276 5.44008376 -2 8 C-2.99 7.67 -3.98 7.34 -5 7 C-4.24172908 5.82512964 -3.46792245 4.66027408 -2.6875 3.5 C-2.25824219 2.8503125 -1.82898438 2.200625 -1.38671875 1.53125 C-0.70029297 0.77328125 -0.70029297 0.77328125 0 0 Z " fill="#1C1C1C" transform="translate(71,175)"/>
<path d="M0 0 C1.13643966 3.40931897 0.86747764 4.00335456 -0.4375 7.1875 C-0.72496094 7.90292969 -1.01242187 8.61835938 -1.30859375 9.35546875 C-1.53675781 9.89816406 -1.76492188 10.44085938 -2 11 C-2.66 10.67 -3.32 10.34 -4 10 C-3.125 4.25 -3.125 4.25 -2 2 C-1.34 2 -0.68 2 0 2 C0 1.34 0 0.68 0 0 Z " fill="#0F0F0F" transform="translate(285,140)"/>
<path d="M0 0 C0.66 0 1.32 0 2 0 C1.67 0.99 1.34 1.98 1 3 C0.77439324 5.39254576 0.59151405 7.78928123 0.4375 10.1875 C0.35371094 11.45980469 0.26992187 12.73210937 0.18359375 14.04296875 C0.12300781 15.01878906 0.06242188 15.99460937 0 17 C-0.33 17 -0.66 17 -1 17 C-1.22126178 14.54220024 -1.42750395 12.08472352 -1.625 9.625 C-1.68945312 8.92632812 -1.75390625 8.22765625 -1.8203125 7.5078125 C-1.96119739 5.67630889 -1.98761659 3.83687252 -2 2 C-1.34 1.34 -0.68 0.68 0 0 Z " fill="#1C1C1C" transform="translate(133,108)"/>
<path d="M0 0 C0.66 0.33 1.32 0.66 2 1 C-0.35277269 3.72426311 -2.62496331 4.8141763 -6 6 C-6.66 5.34 -7.32 4.68 -8 4 C-6.71349294 3.30289269 -5.42059335 2.61757124 -4.125 1.9375 C-3.40570313 1.55464844 -2.68640625 1.17179688 -1.9453125 0.77734375 C-1.30335937 0.52082031 -0.66140625 0.26429688 0 0 Z " fill="#171717" transform="translate(82,240)"/>
<path d="M0 0 C-0.66 0 -1.32 0 -2 0 C-2.33 0.99 -2.66 1.98 -3 3 C-5.5625 4.1875 -5.5625 4.1875 -8 5 C-8.33 4.01 -8.66 3.02 -9 2 C-3.375 -1.125 -3.375 -1.125 0 0 Z " fill="#161616" transform="translate(142,214)"/>
<path d="M0 0 C1.39195915 4.17587745 -0.17676781 6.13474776 -2 10 C-2.66 10 -3.32 10 -4 10 C-4.33 10.66 -4.66 11.32 -5 12 C-4.42365861 7.24518354 -2.44931479 4.02951788 0 0 Z " fill="#0F0F0F" transform="translate(287,180)"/>
<path d="M0 0 C1.9375 0.6875 1.9375 0.6875 2.9375 2.6875 C-1.5175 3.1825 -1.5175 3.1825 -6.0625 3.6875 C-5.4025 3.3575 -4.7425 3.0275 -4.0625 2.6875 C-4.0625 2.0275 -4.0625 1.3675 -4.0625 0.6875 C-2.0625 -0.3125 -2.0625 -0.3125 0 0 Z " fill="#1D1D1D" transform="translate(125.0625,170.3125)"/>
<path d="M0 0 C-1.91197039 0.70045456 -3.82980435 1.384919 -5.75 2.0625 C-6.81734375 2.44535156 -7.8846875 2.82820313 -8.984375 3.22265625 C-11.92280042 3.98010011 -13.22348948 4.07151741 -16 3 C-14.08802961 2.29954544 -12.17019565 1.615081 -10.25 0.9375 C-9.18265625 0.55464844 -8.1153125 0.17179687 -7.015625 -0.22265625 C-4.07719958 -0.98010011 -2.77651052 -1.07151741 0 0 Z " fill="#FFFFFF" transform="translate(98,289)"/>
<path d="M0 0 C0.66 0.33 1.32 0.66 2 1 C-0.36292656 3.52588702 -1.66462511 4.88820837 -5 6 C-5.66 5.34 -6.32 4.68 -7 4 C-1.7265625 0.77734375 -1.7265625 0.77734375 0 0 Z " fill="#181818" transform="translate(250,116)"/>
<path d="M0 0 C1.06546953 3.1964086 1.07427838 5.65747276 1 9 C0.34 9 -0.32 9 -1 9 C-1.66 9.66 -2.32 10.32 -3 11 C-2.69078116 9.54096742 -2.37751201 8.08279278 -2.0625 6.625 C-1.88847656 5.81289062 -1.71445313 5.00078125 -1.53515625 4.1640625 C-1 2 -1 2 0 0 Z " fill="#1A1A1A" transform="translate(227,78)"/>
<path d="M0 0 C0.99 0.33 1.98 0.66 3 1 C3 2.98 3 4.96 3 7 C0.03 6.505 0.03 6.505 -3 6 C-2.01 5.67 -1.02 5.34 0 5 C0 3.35 0 1.7 0 0 Z " fill="#3E3E3E" transform="translate(60,253)"/>
<path d="M0 0 C0.99 0.66 1.98 1.32 3 2 C2.34 3.32 1.68 4.64 1 6 C0.34 6 -0.32 6 -1 6 C-1.625 4.125 -1.625 4.125 -2 2 C-1.34 1.34 -0.68 0.68 0 0 Z " fill="#CC2A2A" transform="translate(184,228)"/>
<path d="M0 0 C0.66 0.33 1.32 0.66 2 1 C-0.36292656 3.52588702 -1.66462511 4.88820837 -5 6 C-5.66 5.34 -6.32 4.68 -7 4 C-1.7265625 0.77734375 -1.7265625 0.77734375 0 0 Z " fill="#181818" transform="translate(237,123)"/>
<path d="M0 0 C0.99 0.33 1.98 0.66 3 1 C3.99 1 4.98 1 6 1 C4.35 2.32 2.7 3.64 1 5 C0.67 4.34 0.34 3.68 0 3 C-0.66 2.67 -1.32 2.34 -2 2 C-1.34 1.34 -0.68 0.68 0 0 Z " fill="#CA1C1C" transform="translate(199,257)"/>
<path d="M0 0 C1.32 1.65 2.64 3.3 4 5 C3.34 5.66 2.68 6.32 2 7 C0.68 5.68 -0.64 4.36 -2 3 C-1.34 2.01 -0.68 1.02 0 0 Z " fill="#CD3A3A" transform="translate(191,207)"/>
<path d="M0 0 C0.33 0.66 0.66 1.32 1 2 C0.06553465 4.03144641 -0.93224776 6.03533587 -2 8 C-2.99 7.34 -3.98 6.68 -5 6 C-2.25 1.125 -2.25 1.125 0 0 Z " fill="#121212" transform="translate(149,205)"/>
<path d="M0 0 C0.99 0.33 1.98 0.66 3 1 C1.35 2.65 -0.3 4.3 -2 6 C-2.99 5.34 -3.98 4.68 -5 4 C-4.0409375 3.8453125 -4.0409375 3.8453125 -3.0625 3.6875 C-2.381875 3.460625 -1.70125 3.23375 -1 3 C-0.67 2.01 -0.34 1.02 0 0 Z " fill="#191919" transform="translate(274,198)"/>
<path d="M0 0 C2.88437779 1.29299694 4.87219421 2.65941363 7 5 C6.01 5.33 5.02 5.66 4 6 C1.8125 4.75 1.8125 4.75 0 3 C0 2.01 0 1.02 0 0 Z " fill="#130202" transform="translate(236,186)"/>
<path d="M0 0 C0 0.66 0 1.32 0 2 C-2.8125 3.125 -2.8125 3.125 -6 4 C-6.99 3.34 -7.98 2.68 -9 2 C-3.375 0 -3.375 0 0 0 Z " fill="#131313" transform="translate(41,265)"/>
<path d="M0 0 C0.66 0.33 1.32 0.66 2 1 C1.67 1.33 1.34 1.66 1 2 C1.99 2.66 2.98 3.32 4 4 C2.02 4.33 0.04 4.66 -2 5 C-2.33 3.68 -2.66 2.36 -3 1 C-2.01 0.67 -1.02 0.34 0 0 Z " fill="#DABEBE" transform="translate(77,245)"/>
<path d="M0 0 C1.32 0.33 2.64 0.66 4 1 C2.515 3.475 2.515 3.475 1 6 C0.01 5.34 -0.98 4.68 -2 4 C-1.34 2.68 -0.68 1.36 0 0 Z " fill="#CD4040" transform="translate(233,229)"/>
<path d="M0 0 C0.66 0.33 1.32 0.66 2 1 C1.34 1.66 0.68 2.32 0 3 C0.33 3.66 0.66 4.32 1 5 C-0.98 5.33 -2.96 5.66 -5 6 C-3.86695008 2.60085025 -2.87481525 1.94745549 0 0 Z " fill="#A6A6A6" transform="translate(120,167)"/>
<path d="M0 0 C0.99 0.33 1.98 0.66 3 1 C1.02 3.97 1.02 3.97 -1 7 C-1.66 6.01 -2.32 5.02 -3 4 C-2.01 2.68 -1.02 1.36 0 0 Z " fill="#191919" transform="translate(93,145)"/>
<path d="M0 0 C-1.04874998 2.62187494 -1.64931313 3.79371361 -4.125 5.25 C-4.74375 5.4975 -5.3625 5.745 -6 6 C-6 5.01 -6 4.02 -6 3 C-2.66666667 0 -2.66666667 0 0 0 Z " fill="#161616" transform="translate(245,16)"/>
<path d="M0 0 C-1.4117783 0.53394179 -2.82970244 1.05165104 -4.25 1.5625 C-5.03890625 1.85253906 -5.8278125 2.14257812 -6.640625 2.44140625 C-9.19103452 3.04522837 -10.55322229 2.8473932 -13 2 C-11.5882217 1.46605821 -10.17029756 0.94834896 -8.75 0.4375 C-7.96109375 0.14746094 -7.1721875 -0.14257812 -6.359375 -0.44140625 C-3.80896548 -1.04522837 -2.44677771 -0.8473932 0 0 Z " fill="#FFFFFF" transform="translate(123,281)"/>
<path d="M0 0 C1.12377697 3.30435084 0.89554742 5.0506862 -0.4375 8.25 C-0.72496094 8.95640625 -1.01242187 9.6628125 -1.30859375 10.390625 C-1.53675781 10.92171875 -1.76492188 11.4528125 -2 12 C-3.15957207 8.52128379 -2.77456651 7.65780355 -1.5625 4.3125 C-1.13130859 3.10013672 -1.13130859 3.10013672 -0.69140625 1.86328125 C-0.46324219 1.24839844 -0.23507812 0.63351563 0 0 Z " fill="#FFFFFF" transform="translate(261,4)"/>
<path d="M0 0 C1.258125 0.12375 2.51625 0.2475 3.8125 0.375 C4.87404297 0.47941406 4.87404297 0.47941406 5.95703125 0.5859375 C8 1 8 1 11 3 C9.741875 2.87625 8.48375 2.7525 7.1875 2.625 C6.12595703 2.52058594 6.12595703 2.52058594 5.04296875 2.4140625 C3 2 3 2 0 0 Z " fill="#FFFFFF" transform="translate(42,295)"/>
<path d="M0 0 C1.04005702 3.38018531 1.08004482 6.4780279 1 10 C0.34 9.34 -0.32 8.68 -1 8 C-0.96712417 5.27130593 -0.43602229 2.7033382 0 0 Z " fill="#FFFFFF" transform="translate(4,248)"/>
<path d="M0 0 C1.46726798 3.81489674 0.43336419 6.29011622 -1 10 C-2.46726798 6.18510326 -1.43336419 3.70988378 0 0 Z " fill="#FFFFFF" transform="translate(13,217)"/>
<path d="M0 0 C0.99 0.495 0.99 0.495 2 1 C2.125 3.875 2.125 3.875 2 7 C1.34 7.66 0.68 8.32 0 9 C0 6.03 0 3.06 0 0 Z " fill="#FFFFFF" transform="translate(294,175)"/>
<path d="M0 0 C2.5654594 2.5654594 2.54046087 4.47686668 3 8 C0.4345406 5.4345406 0.45953913 3.52313332 0 0 Z " fill="#FFFFFF" transform="translate(5,258)"/>
<path d="M0 0 C2.31 0.33 4.62 0.66 7 1 C5.1875 1.625 5.1875 1.625 3 2 C2.01 1.34 1.02 0.68 0 0 Z " fill="#FFFFFF" transform="translate(35,293)"/>
<path d="M0 0 C2.31 0.33 4.62 0.66 7 1 C5.1875 1.625 5.1875 1.625 3 2 C2.01 1.34 1.02 0.68 0 0 Z " fill="#FFFFFF" transform="translate(24,290)"/>
<path d="M0 0 C0.625 1.8125 0.625 1.8125 1 4 C0.34 4.99 -0.32 5.98 -1 7 C-0.67 4.69 -0.34 2.38 0 0 Z " fill="#FFFFFF" transform="translate(6,241)"/>
<path d="M0 0 C0.625 1.8125 0.625 1.8125 1 4 C0.34 4.99 -0.32 5.98 -1 7 C-0.67 4.69 -0.34 2.38 0 0 Z " fill="#FFFFFF" transform="translate(8,234)"/>
<path d="M0 0 C0.625 1.8125 0.625 1.8125 1 4 C0.34 4.99 -0.32 5.98 -1 7 C-0.67 4.69 -0.34 2.38 0 0 Z " fill="#FFFFFF" transform="translate(10,227)"/>
<path d="M0 0 C0.66 0.33 1.32 0.66 2 1 C1.01 1.99 0.02 2.98 -1 4 C-1.66 3.67 -2.32 3.34 -3 3 C-2.01 2.01 -1.02 1.02 0 0 Z " fill="#FFFFFF" transform="translate(139,94)"/>
<path d="M0 0 C0.66 0.33 1.32 0.66 2 1 C1.01 1.99 0.02 2.98 -1 4 C-1.66 3.67 -2.32 3.34 -3 3 C-2.01 2.01 -1.02 1.02 0 0 Z " fill="#FFFFFF" transform="translate(146,88)"/>
<path d="M0 0 C1.32 1.32 2.64 2.64 4 4 C2.68 3.34 1.36 2.68 0 2 C0 1.34 0 0.68 0 0 Z " fill="#FFFFFF" transform="translate(15,283)"/>
<path d="M0 0 C0.33 0.99 0.66 1.98 1 3 C0.34 3.99 -0.32 4.98 -1 6 C-0.67 4.02 -0.34 2.04 0 0 Z " fill="#FFFFFF" transform="translate(15,211)"/>
<path d="M0 0 C0.66 0.66 1.32 1.32 2 2 C1.67 2.99 1.34 3.98 1 5 C0.67 3.35 0.34 1.7 0 0 Z " fill="#FFFFFF" transform="translate(10,271)"/>
<path d="M0 0 C0.66 0.33 1.32 0.66 2 1 C0.02 1.99 0.02 1.99 -2 3 C-1.34 2.01 -0.68 1.02 0 0 Z " fill="#FFFFFF" transform="translate(200,268)"/>
<path d="M0 0 C0.66 0.66 1.32 1.32 2 2 C1.67 2.99 1.34 3.98 1 5 C0.67 3.35 0.34 1.7 0 0 Z " fill="#FFFFFF" transform="translate(8,266)"/>
<path d="M0 0 C0.66 0.33 1.32 0.66 2 1 C0.02 1.99 0.02 1.99 -2 3 C-1.34 2.01 -0.68 1.02 0 0 Z " fill="#FFFFFF" transform="translate(211,259)"/>
<path d="M0 0 C0.66 0.33 1.32 0.66 2 1 C0.02 1.99 0.02 1.99 -2 3 C-1.34 2.01 -0.68 1.02 0 0 Z " fill="#FFFFFF" transform="translate(280,203)"/>
<path d="M0 0 C0.33 0.99 0.66 1.98 1 3 C0.34 3.66 -0.32 4.32 -1 5 C-0.67 3.35 -0.34 1.7 0 0 Z " fill="#FFFFFF" transform="translate(290,192)"/>
<path d="M0 0 C0.33 0.99 0.66 1.98 1 3 C0.34 3.66 -0.32 4.32 -1 5 C-0.67 3.35 -0.34 1.7 0 0 Z " fill="#FFFFFF" transform="translate(288,152)"/>
<path d="M0 0 C0.33 0.99 0.66 1.98 1 3 C0.34 3.66 -0.32 4.32 -1 5 C-0.67 3.35 -0.34 1.7 0 0 Z " fill="#FFFFFF" transform="translate(290,147)"/>
<path d="M0 0 C0.66 0.33 1.32 0.66 2 1 C0.02 1.99 0.02 1.99 -2 3 C-1.34 2.01 -0.68 1.02 0 0 Z " fill="#FFFFFF" transform="translate(100,127)"/>
<path d="M0 0 C0.66 0.33 1.32 0.66 2 1 C0.02 1.99 0.02 1.99 -2 3 C-1.34 2.01 -0.68 1.02 0 0 Z " fill="#FFFFFF" transform="translate(106,122)"/>
<path d="M0 0 C0.66 0.33 1.32 0.66 2 1 C0.02 1.99 0.02 1.99 -2 3 C-1.34 2.01 -0.68 1.02 0 0 Z " fill="#FFFFFF" transform="translate(112,117)"/>
<path d="M0 0 C0.66 0.33 1.32 0.66 2 1 C0.02 1.99 0.02 1.99 -2 3 C-1.34 2.01 -0.68 1.02 0 0 Z " fill="#FFFFFF" transform="translate(118,112)"/>
<path d="M0 0 C0.33 0.99 0.66 1.98 1 3 C0.34 3.66 -0.32 4.32 -1 5 C-0.67 3.35 -0.34 1.7 0 0 Z " fill="#FFFFFF" transform="translate(265,108)"/>
<path d="M0 0 C0.66 0.33 1.32 0.66 2 1 C0.02 1.99 0.02 1.99 -2 3 C-1.34 2.01 -0.68 1.02 0 0 Z " fill="#FFFFFF" transform="translate(132,100)"/>
<path d="M0 0 C0.66 0.33 1.32 0.66 2 1 C0.02 1.99 0.02 1.99 -2 3 C-1.34 2.01 -0.68 1.02 0 0 Z " fill="#FFFFFF" transform="translate(161,76)"/>
<path d="M0 0 C0.66 0.33 1.32 0.66 2 1 C0.02 1.99 0.02 1.99 -2 3 C-1.34 2.01 -0.68 1.02 0 0 Z " fill="#FFFFFF" transform="translate(167,71)"/>
<path d="M0 0 C0.66 0.33 1.32 0.66 2 1 C0.02 1.99 0.02 1.99 -2 3 C-1.34 2.01 -0.68 1.02 0 0 Z " fill="#FFFFFF" transform="translate(180,60)"/>
<path d="M0 0 C0.66 0.33 1.32 0.66 2 1 C0.02 1.99 0.02 1.99 -2 3 C-1.34 2.01 -0.68 1.02 0 0 Z " fill="#FFFFFF" transform="translate(186,55)"/>
<path d="M0 0 C0.66 0.33 1.32 0.66 2 1 C0.02 1.99 0.02 1.99 -2 3 C-1.34 2.01 -0.68 1.02 0 0 Z " fill="#FFFFFF" transform="translate(199,44)"/>
<path d="M0 0 C0.66 0.33 1.32 0.66 2 1 C0.02 1.99 0.02 1.99 -2 3 C-1.34 2.01 -0.68 1.02 0 0 Z " fill="#FFFFFF" transform="translate(205,39)"/>
<path d="M0 0 C0.66 0.33 1.32 0.66 2 1 C0.02 1.99 0.02 1.99 -2 3 C-1.34 2.01 -0.68 1.02 0 0 Z " fill="#FFFFFF" transform="translate(212,33)"/>
<path d="M0 0 C0.66 0.33 1.32 0.66 2 1 C0.02 1.99 0.02 1.99 -2 3 C-1.34 2.01 -0.68 1.02 0 0 Z " fill="#FFFFFF" transform="translate(218,28)"/>
<path d="M0 0 C0.66 0.33 1.32 0.66 2 1 C0.02 1.99 0.02 1.99 -2 3 C-1.34 2.01 -0.68 1.02 0 0 Z " fill="#FFFFFF" transform="translate(225,22)"/>
<path d="M0 0 C0.66 0.33 1.32 0.66 2 1 C0.02 1.99 0.02 1.99 -2 3 C-1.34 2.01 -0.68 1.02 0 0 Z " fill="#FFFFFF" transform="translate(231,17)"/>
<path d="M0 0 C0.66 0.33 1.32 0.66 2 1 C0.02 1.99 0.02 1.99 -2 3 C-1.34 2.01 -0.68 1.02 0 0 Z " fill="#FFFFFF" transform="translate(238,11)"/>
<path d="M0 0 C0.66 0.33 1.32 0.66 2 1 C0.02 1.99 0.02 1.99 -2 3 C-1.34 2.01 -0.68 1.02 0 0 Z " fill="#FFFFFF" transform="translate(244,6)"/>
<path d="M0 0 C0.66 1.32 1.32 2.64 2 4 C1.34 3.67 0.68 3.34 0 3 C0 2.01 0 1.02 0 0 Z " fill="#FFFFFF" transform="translate(267,98)"/>
<path d="M0 0 C0.99 0.33 1.98 0.66 3 1 C1.68 1.33 0.36 1.66 -1 2 C-0.67 1.34 -0.34 0.68 0 0 Z " fill="#FFFFFF" transform="translate(152,83)"/>
<path d="M0 0 C4 1 4 1 4 1 Z " fill="#FFFFFF" transform="translate(31,292)"/>
<path d="M0 0 C0.99 0.33 1.98 0.66 3 1 C2.01 1 1.02 1 0 1 C0 0.67 0 0.34 0 0 Z " fill="#FFFFFF" transform="translate(19,287)"/>
<path d="M0 0 C0.66 0.33 1.32 0.66 2 1 C1.01 1 0.02 1 -1 1 C-0.67 0.67 -0.34 0.34 0 0 Z " fill="#FFFFFF" transform="translate(205,264)"/>
<path d="M0 0 C0.66 0.33 1.32 0.66 2 1 C1.01 1 0.02 1 -1 1 C-0.67 0.67 -0.34 0.34 0 0 Z " fill="#FFFFFF" transform="translate(216,255)"/>
<path d="M0 0 C0.66 0.33 1.32 0.66 2 1 C1.01 1 0.02 1 -1 1 C-0.67 0.67 -0.34 0.34 0 0 Z " fill="#FFFFFF" transform="translate(222,250)"/>
<path d="M0 0 C0.66 0.33 1.32 0.66 2 1 C1.01 1 0.02 1 -1 1 C-0.67 0.67 -0.34 0.34 0 0 Z " fill="#FFFFFF" transform="translate(227,246)"/>
<path d="M0 0 C0.66 0.33 1.32 0.66 2 1 C1.01 1 0.02 1 -1 1 C-0.67 0.67 -0.34 0.34 0 0 Z " fill="#FFFFFF" transform="translate(233,241)"/>
<path d="M0 0 C0.66 0.33 1.32 0.66 2 1 C1.01 1 0.02 1 -1 1 C-0.67 0.67 -0.34 0.34 0 0 Z " fill="#FFFFFF" transform="translate(238,237)"/>
<path d="M0 0 C0.66 0.33 1.32 0.66 2 1 C1.01 1 0.02 1 -1 1 C-0.67 0.67 -0.34 0.34 0 0 Z " fill="#FFFFFF" transform="translate(244,232)"/>
<path d="M0 0 C0.66 0.33 1.32 0.66 2 1 C1.01 1 0.02 1 -1 1 C-0.67 0.67 -0.34 0.34 0 0 Z " fill="#FFFFFF" transform="translate(249,228)"/>
<path d="M0 0 C0.66 0.33 1.32 0.66 2 1 C1.01 1 0.02 1 -1 1 C-0.67 0.67 -0.34 0.34 0 0 Z " fill="#FFFFFF" transform="translate(255,223)"/>
<path d="M0 0 C0.66 0.33 1.32 0.66 2 1 C1.01 1 0.02 1 -1 1 C-0.67 0.67 -0.34 0.34 0 0 Z " fill="#FFFFFF" transform="translate(260,219)"/>
<path d="M0 0 C0.66 0.33 1.32 0.66 2 1 C1.01 1 0.02 1 -1 1 C-0.67 0.67 -0.34 0.34 0 0 Z " fill="#FFFFFF" transform="translate(266,214)"/>
<path d="M0 0 C0.66 0.33 1.32 0.66 2 1 C1.01 1 0.02 1 -1 1 C-0.67 0.67 -0.34 0.34 0 0 Z " fill="#FFFFFF" transform="translate(270,211)"/>
<path d="M0 0 C0.66 0.33 1.32 0.66 2 1 C1.01 1 0.02 1 -1 1 C-0.67 0.67 -0.34 0.34 0 0 Z " fill="#FFFFFF" transform="translate(275,207)"/>
<path d="M0 0 C0.66 0.33 1.32 0.66 2 1 C1.01 1 0.02 1 -1 1 C-0.67 0.67 -0.34 0.34 0 0 Z " fill="#FFFFFF" transform="translate(19,207)"/>
<path d="M0 0 C0.66 0.33 1.32 0.66 2 1 C1.01 1 0.02 1 -1 1 C-0.67 0.67 -0.34 0.34 0 0 Z " fill="#FFFFFF" transform="translate(22,205)"/>
<path d="M0 0 C0.66 0.33 1.32 0.66 2 1 C1.01 1 0.02 1 -1 1 C-0.67 0.67 -0.34 0.34 0 0 Z " fill="#FFFFFF" transform="translate(284,200)"/>
<path d="M0 0 C0.66 0.33 1.32 0.66 2 1 C1.01 1 0.02 1 -1 1 C-0.67 0.67 -0.34 0.34 0 0 Z " fill="#FFFFFF" transform="translate(29,200)"/>
<path d="M0 0 C0.66 0.33 1.32 0.66 2 1 C1.01 1 0.02 1 -1 1 C-0.67 0.67 -0.34 0.34 0 0 Z " fill="#FFFFFF" transform="translate(32,198)"/>
<path d="M0 0 C0.66 0.33 1.32 0.66 2 1 C1.01 1 0.02 1 -1 1 C-0.67 0.67 -0.34 0.34 0 0 Z " fill="#FFFFFF" transform="translate(35,196)"/>
<path d="M0 0 C0.66 0.33 1.32 0.66 2 1 C1.01 1 0.02 1 -1 1 C-0.67 0.67 -0.34 0.34 0 0 Z " fill="#FFFFFF" transform="translate(39,193)"/>
<path d="M0 0 C0.66 0.33 1.32 0.66 2 1 C1.01 1 0.02 1 -1 1 C-0.67 0.67 -0.34 0.34 0 0 Z " fill="#FFFFFF" transform="translate(42,191)"/>
<path d="M0 0 C0.66 0.33 1.32 0.66 2 1 C1.01 1 0.02 1 -1 1 C-0.67 0.67 -0.34 0.34 0 0 Z " fill="#FFFFFF" transform="translate(45,189)"/>
<path d="M0 0 C0.66 0.33 1.32 0.66 2 1 C1.01 1 0.02 1 -1 1 C-0.67 0.67 -0.34 0.34 0 0 Z " fill="#FFFFFF" transform="translate(48,187)"/>
<path d="M0 0 C0.66 0.33 1.32 0.66 2 1 C1.01 1 0.02 1 -1 1 C-0.67 0.67 -0.34 0.34 0 0 Z " fill="#FFFFFF" transform="translate(52,184)"/>
<path d="M0 0 C0.66 0.33 1.32 0.66 2 1 C1.01 1 0.02 1 -1 1 C-0.67 0.67 -0.34 0.34 0 0 Z " fill="#FFFFFF" transform="translate(55,182)"/>
<path d="M0 0 C0.66 0.33 1.32 0.66 2 1 C1.01 1 0.02 1 -1 1 C-0.67 0.67 -0.34 0.34 0 0 Z " fill="#FFFFFF" transform="translate(58,180)"/>
<path d="M0 0 C0 3 0 3 0 3 Z " fill="#FFFFFF" transform="translate(63,175)"/>
<path d="M0 0 C0 3 0 3 0 3 Z " fill="#FFFFFF" transform="translate(66,171)"/>
<path d="M0 0 C0.66 0.33 1.32 0.66 2 1 C1.01 1 0.02 1 -1 1 C-0.67 0.67 -0.34 0.34 0 0 Z " fill="#FFFFFF" transform="translate(272,167)"/>
<path d="M0 0 C0.66 0.33 1.32 0.66 2 1 C1.01 1 0.02 1 -1 1 C-0.67 0.67 -0.34 0.34 0 0 Z " fill="#FFFFFF" transform="translate(281,162)"/>
<path d="M0 0 C0 3 0 3 0 3 Z " fill="#FFFFFF" transform="translate(74,160)"/>
<path d="M0 0 C0 3 0 3 0 3 Z " fill="#FFFFFF" transform="translate(79,153)"/>
<path d="M0 0 C0 3 0 3 0 3 Z " fill="#FFFFFF" transform="translate(82,149)"/>
<path d="M0 0 C0 3 0 3 0 3 Z " fill="#FFFFFF" transform="translate(87,142)"/>
<path d="M0 0 C0 3 0 3 0 3 Z " fill="#FFFFFF" transform="translate(90,138)"/>
<path d="M0 0 C1 4 1 4 1 4 Z " fill="#FFFFFF" transform="translate(294,135)"/>
<path d="M0 0 C0 3 0 3 0 3 Z " fill="#FFFFFF" transform="translate(92,135)"/>
<path d="M0 0 C0.66 0.33 1.32 0.66 2 1 C1.01 1 0.02 1 -1 1 C-0.67 0.67 -0.34 0.34 0 0 Z " fill="#FFFFFF" transform="translate(250,125)"/>
<path d="M0 0 C0.66 0.33 1.32 0.66 2 1 C1.01 1 0.02 1 -1 1 C-0.67 0.67 -0.34 0.34 0 0 Z " fill="#FFFFFF" transform="translate(259,120)"/>
<path d="M0 0 C0.66 0.33 1.32 0.66 2 1 C1.01 1 0.02 1 -1 1 C-0.67 0.67 -0.34 0.34 0 0 Z " fill="#FFFFFF" transform="translate(173,66)"/>
<path d="M0 0 C0.66 0.33 1.32 0.66 2 1 C1.01 1 0.02 1 -1 1 C-0.67 0.67 -0.34 0.34 0 0 Z " fill="#FFFFFF" transform="translate(192,50)"/>
<path d="M0 0 C0.66 0.33 1.32 0.66 2 1 C1.01 1 0.02 1 -1 1 C-0.67 0.67 -0.34 0.34 0 0 Z " fill="#FFFFFF" transform="translate(250,1)"/>
<path d="M0 0 C3 1 3 1 3 1 Z " fill="#FFFFFF" transform="translate(73,295)"/>
<path d="M0 0 C3 1 3 1 3 1 Z " fill="#FFFFFF" transform="translate(76,294)"/>
<path d="M0 0 C3 1 3 1 3 1 Z " fill="#FFFFFF" transform="translate(79,293)"/>
<path d="M0 0 C3 1 3 1 3 1 Z " fill="#FFFFFF" transform="translate(98,287)"/>
<path d="M0 0 C3 1 3 1 3 1 Z " fill="#FFFFFF" transform="translate(101,286)"/>
<path d="M0 0 C3 1 3 1 3 1 Z " fill="#FFFFFF" transform="translate(104,285)"/>
<path d="M0 0 C3 1 3 1 3 1 Z " fill="#FFFFFF" transform="translate(107,284)"/>
<path d="M0 0 C3 1 3 1 3 1 Z " fill="#FFFFFF" transform="translate(123,279)"/>
<path d="M0 0 C3 1 3 1 3 1 Z " fill="#FFFFFF" transform="translate(126,278)"/>
<path d="" fill="#FFFFFF" transform="translate(0,0)"/>
<path d="" fill="#FFFFFF" transform="translate(0,0)"/>
<path d="" fill="#FFFFFF" transform="translate(0,0)"/>
<path d="M0 0 C0.33 0.66 0.66 1.32 1 2 C0.34 1.67 -0.32 1.34 -1 1 C-0.67 0.67 -0.34 0.34 0 0 Z " fill="#FFFFFF" transform="translate(284,160)"/>
<path d="" fill="#FFFFFF" transform="translate(0,0)"/>
<path d="" fill="#FFFFFF" transform="translate(0,0)"/>
<path d="" fill="#FFFFFF" transform="translate(0,0)"/>
<path d="" fill="#FFFFFF" transform="translate(0,0)"/>
<path d="" fill="#FFFFFF" transform="translate(0,0)"/>
<path d="" fill="#FFFFFF" transform="translate(0,0)"/>
<path d="" fill="#FFFFFF" transform="translate(0,0)"/>
<path d="" fill="#FFFFFF" transform="translate(0,0)"/>
<path d="" fill="#FFFFFF" transform="translate(0,0)"/>
<path d="" fill="#FFFFFF" transform="translate(0,0)"/>
<path d="" fill="#FFFFFF" transform="translate(0,0)"/>
<path d="" fill="#FFFFFF" transform="translate(0,0)"/>
<path d="" fill="#FFFFFF" transform="translate(0,0)"/>
<path d="M0 0 C2 1 2 1 2 1 Z " fill="#FFFFFF" transform="translate(22,289)"/>
<path d="" fill="#FFFFFF" transform="translate(0,0)"/>
<path d="" fill="#FFFFFF" transform="translate(0,0)"/>
<path d="M0 0 C2 1 2 1 2 1 Z " fill="#FFFFFF" transform="translate(25,203)"/>
<path d="" fill="#FFFFFF" transform="translate(0,0)"/>
<path d="M0 0 C2 1 2 1 2 1 Z " fill="#FFFFFF" transform="translate(267,170)"/>
<path d="M0 0 C2 1 2 1 2 1 Z " fill="#FFFFFF" transform="translate(269,169)"/>
<path d="" fill="#FFFFFF" transform="translate(0,0)"/>
<path d="M0 0 C2 1 2 1 2 1 Z " fill="#FFFFFF" transform="translate(274,166)"/>
<path d="M0 0 C2 1 2 1 2 1 Z " fill="#FFFFFF" transform="translate(276,165)"/>
<path d="" fill="#FFFFFF" transform="translate(0,0)"/>
<path d="M0 0 C2 1 2 1 2 1 Z " fill="#FFFFFF" transform="translate(278,164)"/>
<path d="" fill="#FFFFFF" transform="translate(0,0)"/>
<path d="" fill="#FFFFFF" transform="translate(0,0)"/>
<path d="" fill="#FFFFFF" transform="translate(0,0)"/>
<path d="" fill="#FFFFFF" transform="translate(0,0)"/>
<path d="" fill="#FFFFFF" transform="translate(0,0)"/>
<path d="M0 0 C2 1 2 1 2 1 Z " fill="#FFFFFF" transform="translate(290,131)"/>
<path d="M0 0 C2 1 2 1 2 1 Z " fill="#FFFFFF" transform="translate(245,128)"/>
<path d="M0 0 C2 1 2 1 2 1 Z " fill="#FFFFFF" transform="translate(247,127)"/>
<path d="M0 0 C2 1 2 1 2 1 Z " fill="#FFFFFF" transform="translate(252,124)"/>
<path d="M0 0 C2 1 2 1 2 1 Z " fill="#FFFFFF" transform="translate(254,123)"/>
<path d="M0 0 C2 1 2 1 2 1 Z " fill="#FFFFFF" transform="translate(256,122)"/>
<path d="" fill="#FFFFFF" transform="translate(0,0)"/>
<path d="" fill="#FFFFFF" transform="translate(0,0)"/>
<path d="M0 0 C2 1 2 1 2 1 Z " fill="#FFFFFF" transform="translate(122,109)"/>
<path d="M0 0 C2 1 2 1 2 1 Z " fill="#FFFFFF" transform="translate(263,95)"/>
<path d="" fill="#FFFFFF" transform="translate(0,0)"/>
<path d="M0 0 C2 1 2 1 2 1 Z " fill="#FFFFFF" transform="translate(257,0)"/>
<path d="" fill="#FFFFFF" transform="translate(0,0)"/>
<path d="" fill="#FFFFFF" transform="translate(0,0)"/>
<path d="" fill="#FFFFFF" transform="translate(0,0)"/>
<path d="" fill="#FFFFFF" transform="translate(0,0)"/>
<path d="" fill="#FFFFFF" transform="translate(0,0)"/>
<path d="" fill="#FFFFFF" transform="translate(0,0)"/>
<path d="" fill="#FFFFFF" transform="translate(0,0)"/>
<path d="" fill="#FFFFFF" transform="translate(0,0)"/>
<path d="" fill="#FFFFFF" transform="translate(0,0)"/>
<path d="" fill="#FFFFFF" transform="translate(0,0)"/>
<path d="" fill="#FFFFFF" transform="translate(0,0)"/>
<path d="" fill="#FFFFFF" transform="translate(0,0)"/>
<path d="" fill="#FFFFFF" transform="translate(0,0)"/>
<path d="" fill="#FFFFFF" transform="translate(0,0)"/>
<path d="" fill="#FFFFFF" transform="translate(0,0)"/>
<path d="" fill="#FFFFFF" transform="translate(0,0)"/>
<path d="" fill="#FFFFFF" transform="translate(0,0)"/>
<path d="" fill="#FFFFFF" transform="translate(0,0)"/>
<path d="" fill="#FFFFFF" transform="translate(0,0)"/>
<path d="" fill="#FFFFFF" transform="translate(0,0)"/>
<path d="" fill="#FFFFFF" transform="translate(0,0)"/>
<path d="" fill="#FFFFFF" transform="translate(0,0)"/>
<path d="" fill="#FFFFFF" transform="translate(0,0)"/>
<path d="" fill="#FFFFFF" transform="translate(0,0)"/>
<path d="" fill="#FFFFFF" transform="translate(0,0)"/>
<path d="" fill="#FFFFFF" transform="translate(0,0)"/>
<path d="" fill="#FFFFFF" transform="translate(0,0)"/>
<path d="" fill="#FFFFFF" transform="translate(0,0)"/>
<path d="" fill="#FFFFFF" transform="translate(0,0)"/>
<path d="" fill="#FFFFFF" transform="translate(0,0)"/>
<path d="" fill="#FFFFFF" transform="translate(0,0)"/>
<path d="" fill="#FFFFFF" transform="translate(0,0)"/>
<path d="" fill="#FFFFFF" transform="translate(0,0)"/>
<path d="" fill="#FFFFFF" transform="translate(0,0)"/>
<path d="" fill="#FFFFFF" transform="translate(0,0)"/>
<path d="" fill="#FFFFFF" transform="translate(0,0)"/>
<path d="" fill="#FFFFFF" transform="translate(0,0)"/>
<path d="" fill="#FFFFFF" transform="translate(0,0)"/>
<path d="" fill="#FFFFFF" transform="translate(0,0)"/>
<path d="" fill="#FFFFFF" transform="translate(0,0)"/>
<path d="" fill="#FFFFFF" transform="translate(0,0)"/>
<path d="" fill="#FFFFFF" transform="translate(0,0)"/>
<path d="" fill="#FFFFFF" transform="translate(0,0)"/>
<path d="" fill="#FFFFFF" transform="translate(0,0)"/>
<path d="" fill="#FFFFFF" transform="translate(0,0)"/>
<path d="" fill="#FFFFFF" transform="translate(0,0)"/>
<path d="" fill="#FFFFFF" transform="translate(0,0)"/>
<path d="" fill="#FFFFFF" transform="translate(0,0)"/>
<path d="" fill="#FFFFFF" transform="translate(0,0)"/>
<path d="" fill="#FFFFFF" transform="translate(0,0)"/>
<path d="" fill="#FFFFFF" transform="translate(0,0)"/>
<path d="" fill="#FFFFFF" transform="translate(0,0)"/>
<path d="" fill="#FFFFFF" transform="translate(0,0)"/>
<path d="" fill="#FFFFFF" transform="translate(0,0)"/>
<path d="" fill="#FFFFFF" transform="translate(0,0)"/>
<path d="" fill="#FFFFFF" transform="translate(0,0)"/>
<path d="" fill="#FFFFFF" transform="translate(0,0)"/>
<path d="" fill="#FFFFFF" transform="translate(0,0)"/>
<path d="" fill="#FFFFFF" transform="translate(0,0)"/>
<path d="" fill="#FFFFFF" transform="translate(0,0)"/>
<path d="" fill="#FFFFFF" transform="translate(0,0)"/>
<path d="" fill="#FFFFFF" transform="translate(0,0)"/>
<path d="" fill="#FFFFFF" transform="translate(0,0)"/>
<path d="" fill="#FFFFFF" transform="translate(0,0)"/>
<path d="" fill="#FFFFFF" transform="translate(0,0)"/>
<path d="" fill="#FFFFFF" transform="translate(0,0)"/>
<path d="" fill="#FFFFFF" transform="translate(0,0)"/>
<path d="" fill="#FFFFFF" transform="translate(0,0)"/>
<path d="" fill="#FFFFFF" transform="translate(0,0)"/>
<path d="" fill="#FFFFFF" transform="translate(0,0)"/>
<path d="" fill="#FFFFFF" transform="translate(0,0)"/>
<path d="" fill="#FFFFFF" transform="translate(0,0)"/>
<path d="" fill="#FFFFFF" transform="translate(0,0)"/>
<path d="" fill="#FFFFFF" transform="translate(0,0)"/>
<path d="" fill="#FFFFFF" transform="translate(0,0)"/>
<path d="" fill="#FFFFFF" transform="translate(0,0)"/>
<path d="" fill="#FFFFFF" transform="translate(0,0)"/>
<path d="" fill="#FFFFFF" transform="translate(0,0)"/>
<path d="" fill="#FFFFFF" transform="translate(0,0)"/>
<path d="" fill="#FFFFFF" transform="translate(0,0)"/>
<path d="" fill="#FFFFFF" transform="translate(0,0)"/>
<path d="" fill="#FFFFFF" transform="translate(0,0)"/>
<path d="" fill="#FFFFFF" transform="translate(0,0)"/>
<path d="" fill="#FFFFFF" transform="translate(0,0)"/>
<path d="" fill="#FFFFFF" transform="translate(0,0)"/>
<path d="" fill="#FFFFFF" transform="translate(0,0)"/>
<path d="" fill="#FFFFFF" transform="translate(0,0)"/>
<path d="" fill="#FFFFFF" transform="translate(0,0)"/>
<path d="" fill="#FFFFFF" transform="translate(0,0)"/>
<path d="" fill="#FFFFFF" transform="translate(0,0)"/>
<path d="" fill="#FFFFFF" transform="translate(0,0)"/>
<path d="" fill="#FFFFFF" transform="translate(0,0)"/>
<path d="" fill="#FFFFFF" transform="translate(0,0)"/>
<path d="" fill="#FFFFFF" transform="translate(0,0)"/>
<path d="" fill="#FFFFFF" transform="translate(0,0)"/>
<path d="" fill="#FFFFFF" transform="translate(0,0)"/>
<path d="" fill="#FFFFFF" transform="translate(0,0)"/>
<path d="" fill="#FFFFFF" transform="translate(0,0)"/>
<path d="" fill="#FFFFFF" transform="translate(0,0)"/>
<path d="" fill="#FFFFFF" transform="translate(0,0)"/>
<path d="" fill="#FFFFFF" transform="translate(0,0)"/>
<path d="" fill="#FFFFFF" transform="translate(0,0)"/>
<path d="" fill="#FFFFFF" transform="translate(0,0)"/>
<path d="" fill="#FFFFFF" transform="translate(0,0)"/>
<path d="" fill="#FFFFFF" transform="translate(0,0)"/>
<path d="" fill="#FFFFFF" transform="translate(0,0)"/>
<path d="" fill="#FFFFFF" transform="translate(0,0)"/>
<path d="" fill="#FFFFFF" transform="translate(0,0)"/>
<path d="" fill="#FFFFFF" transform="translate(0,0)"/>
<path d="" fill="#FFFFFF" transform="translate(0,0)"/>
<path d="" fill="#FFFFFF" transform="translate(0,0)"/>
<path d="" fill="#FFFFFF" transform="translate(0,0)"/>
<path d="" fill="#FFFFFF" transform="translate(0,0)"/>
<path d="" fill="#FFFFFF" transform="translate(0,0)"/>
<path d="" fill="#FFFFFF" transform="translate(0,0)"/>
<path d="" fill="#FFFFFF" transform="translate(0,0)"/>
<path d="" fill="#FFFFFF" transform="translate(0,0)"/>
<path d="" fill="#FFFFFF" transform="translate(0,0)"/>
<path d="" fill="#FFFFFF" transform="translate(0,0)"/>
<path d="" fill="#FFFFFF" transform="translate(0,0)"/>
<path d="" fill="#FFFFFF" transform="translate(0,0)"/>
<path d="" fill="#FFFFFF" transform="translate(0,0)"/>
<path d="" fill="#FFFFFF" transform="translate(0,0)"/>
<path d="" fill="#FFFFFF" transform="translate(0,0)"/>
<path d="" fill="#FFFFFF" transform="translate(0,0)"/>
<path d="" fill="#FFFFFF" transform="translate(0,0)"/>
<path d="" fill="#FFFFFF" transform="translate(0,0)"/>
<path d="" fill="#FFFFFF" transform="translate(0,0)"/>
<path d="" fill="#FFFFFF" transform="translate(0,0)"/>
<path d="" fill="#FFFFFF" transform="translate(0,0)"/>
<path d="" fill="#FFFFFF" transform="translate(0,0)"/>
</svg>
