<?xml version="1.0" encoding="iso-8859-1"?>
<!-- Uploaded to: SVG Repo, www.svgrepo.com, Generator: SVG Repo Mixer Tools -->
<!DOCTYPE svg PUBLIC "-//W3C//DTD SVG 1.1//EN" "http://www.w3.org/Graphics/SVG/1.1/DTD/svg11.dtd">
<svg fill="#000000" version="1.1" id="Capa_1" xmlns="http://www.w3.org/2000/svg" xmlns:xlink="http://www.w3.org/1999/xlink" 
	 width="800px" height="800px" viewBox="0 0 333.265 333.265"
	 xml:space="preserve">
<g>
	<g>
		<path d="M125.873,77.943c24.205,0,43.901,19.696,43.901,43.901c0,4.452,3.611,8.063,8.063,8.063c4.451,0,8.062-3.612,8.062-8.063
			c0-33.098-26.93-60.026-60.026-60.026c-33.095,0-60.022,26.929-60.022,60.026s26.928,60.022,60.022,60.022
			c4.451,0,8.062-3.612,8.062-8.063s-3.611-8.063-8.062-8.063c-24.206,0-43.896-19.69-43.896-43.896
			C81.978,97.639,101.673,77.943,125.873,77.943z"/>
		<path d="M125.873,0C58.691,0,4.034,54.657,4.034,121.844c0,67.183,54.657,121.84,121.839,121.84c4.451,0,8.062-3.612,8.062-8.063
			s-3.611-8.063-8.062-8.063c-58.29,0-105.713-47.423-105.713-105.713c0-58.294,47.423-105.718,105.713-105.718
			c58.289,0,105.717,47.423,105.717,105.718c0,4.452,3.612,8.063,8.063,8.063s8.063-3.612,8.063-8.063
			C247.717,54.651,193.06,0,125.873,0z"/>
		<path d="M290.683,179.016c-0.021-0.945-0.188-1.87-0.514-2.729c-0.042-0.094-0.104-0.18-0.131-0.273
			c-0.384-0.893-0.908-1.701-1.581-2.399c-0.031-0.036-0.041-0.078-0.072-0.109c-0.042-0.052-0.117-0.064-0.158-0.111
			c-0.683-0.656-1.47-1.196-2.373-1.595c-0.12-0.052-0.24-0.09-0.367-0.132c-0.272-0.099-0.524-0.221-0.803-0.299L149.4,136.427
			c-0.037-0.01-0.081-0.01-0.118-0.016c-0.401-0.097-0.816-0.154-1.241-0.188c-0.134-0.011-0.268-0.027-0.396-0.032
			c-0.333-0.01-0.666,0.016-1,0.05c-0.239,0.021-0.47,0.042-0.701,0.084c-0.097,0.019-0.186,0.011-0.283,0.034
			c-0.168,0.037-0.312,0.107-0.467,0.155c-0.265,0.076-0.522,0.149-0.774,0.252c-0.254,0.103-0.496,0.215-0.732,0.338
			c-0.221,0.113-0.436,0.231-0.646,0.369c-0.231,0.144-0.447,0.304-0.654,0.478c-0.199,0.155-0.388,0.317-0.572,0.494
			c-0.187,0.178-0.354,0.366-0.525,0.563c-0.173,0.2-0.333,0.404-0.491,0.625c-0.149,0.215-0.278,0.436-0.407,0.662
			c-0.123,0.22-0.247,0.446-0.349,0.682c-0.118,0.268-0.209,0.543-0.301,0.822c-0.048,0.147-0.118,0.275-0.155,0.425
			c-0.024,0.087-0.024,0.168-0.04,0.252c-0.062,0.287-0.103,0.575-0.134,0.872c-0.026,0.247-0.06,0.494-0.066,0.747
			c-0.005,0.252,0.019,0.499,0.04,0.759c0.021,0.289,0.047,0.58,0.103,0.863c0.016,0.087,0.01,0.168,0.026,0.255l30.462,138.866
			c0.053,0.244,0.2,0.426,0.273,0.657c0.124,0.399,0.287,0.771,0.47,1.15c0.29,0.571,0.622,1.086,1.027,1.563
			c0.149,0.174,0.209,0.404,0.375,0.562c0.103,0.109,0.236,0.136,0.338,0.229c0.539,0.483,1.129,0.862,1.769,1.187
			c0.259,0.127,0.483,0.322,0.749,0.41c0.903,0.346,1.866,0.566,2.858,0.566c0,0,0,0,0.005,0s0,0,0,0h0.005
			c0.573,0,1.14-0.062,1.722-0.189c0.385-0.083,0.73-0.219,1.088-0.346c0.094-0.041,0.188-0.062,0.288-0.104
			c0.936-0.39,1.759-0.945,2.462-1.629c0.031-0.031,0.073-0.031,0.115-0.062l22.494-22.31l60.939,64.232
			c0.096,0.094,0.205,0.166,0.306,0.262c0.042,0.042,0.062,0.094,0.104,0.136c0.067,0.064,0.147,0.074,0.221,0.132
			c0.693,0.598,1.459,1.081,2.268,1.402c0.105,0.042,0.189,0.062,0.283,0.094c0.867,0.304,1.771,0.483,2.677,0.483
			c0.935,0,1.859-0.189,2.74-0.515c0.101-0.031,0.185-0.052,0.274-0.089c0.839-0.337,1.621-0.846,2.335-1.477
			c0.068-0.062,0.143-0.073,0.21-0.136c0.042-0.031,0.053-0.094,0.1-0.137c0.096-0.094,0.21-0.151,0.306-0.263l48.378-52.86
			c0.32-0.337,0.441-0.767,0.693-1.146c0.305-0.473,0.66-0.914,0.85-1.418c0.189-0.482,0.21-0.997,0.31-1.49
			c0.09-0.515,0.236-1.008,0.221-1.532c-0.016-0.515-0.167-0.997-0.278-1.491c-0.114-0.524-0.151-1.023-0.361-1.506
			c-0.2-0.473-0.562-0.872-0.846-1.302c-0.278-0.395-0.441-0.846-0.787-1.207l-59.896-60.7l21.271-21.103
			c0.151-0.146,0.209-0.346,0.346-0.509c0.421-0.494,0.767-1.008,1.07-1.607c0.18-0.341,0.337-0.681,0.463-1.033
			c0.069-0.189,0.199-0.346,0.252-0.562c0.157-0.618,0.226-1.244,0.235-1.875C290.698,179.215,290.683,179.121,290.683,179.016z"/>
	</g>
</g>
</svg>