<?xml version="1.0" encoding="UTF-8"?>
<svg version="1.1" xmlns="http://www.w3.org/2000/svg" width="850" height="1100">
<path d="M0 0 C0.66 0.33 1.32 0.66 2 1 C0.37189065 19.92980873 -5.83718259 39.67339741 -20.8203125 52.39453125 C-29.35077779 58.96562889 -38.83102259 63.80626021 -48.41015625 68.65234375 C-55.09285578 71.48896391 -55.09285578 71.48896391 -59 77 C-58.09121094 76.69707031 -57.18242187 76.39414063 -56.24609375 76.08203125 C-55.64732422 75.88270996 -55.04855469 75.68338867 -54.43164062 75.47802734 C-53.07682392 75.02586888 -51.72267853 74.57169494 -50.36914062 74.11572266 C-47.08112626 73.01089538 -43.79551918 71.93863311 -40.47265625 70.94140625 C-13.16144959 62.55450027 10.89660863 46.39595517 34 30 C35.02351563 29.28328125 36.04703125 28.5665625 37.1015625 27.828125 C47.27119562 20.78987032 47.27119562 20.78987032 55.5625 11.765625 C56.036875 11.18296875 56.51125 10.6003125 57 10 C57.99 10 58.98 10 60 10 C59.41135627 13.96754792 58.18551778 16.79877215 56.15625 20.24609375 C55.57399658 21.24141113 54.99174316 22.23672852 54.3918457 23.26220703 C53.76753662 24.31005371 53.14322754 25.35790039 52.5 26.4375 C51.86215576 27.51628418 51.22431152 28.59506836 50.56713867 29.70654297 C48.72311322 32.81155813 46.86586584 35.90806874 45 39 C44.54963379 39.74685059 44.09926758 40.49370117 43.63525391 41.26318359 C32.44823022 59.64550806 16.85893278 81.74395109 -5 88 C-11.7705334 89.04385097 -18.53569785 89.32383881 -25.37304688 89.60546875 C-26.59024414 89.66154297 -26.59024414 89.66154297 -27.83203125 89.71875 C-28.56139893 89.74904297 -29.2907666 89.77933594 -30.04223633 89.81054688 C-32.2136001 89.94710001 -32.2136001 89.94710001 -35 91 C-13.30159306 91.57274983 7.10452525 90.59857097 28 84 C26.62946775 88.77873413 24.53732414 92.69590024 21.8125 96.8125 C21.41393799 97.42125977 21.01537598 98.03001953 20.60473633 98.65722656 C10.50482122 113.92111424 10.50482122 113.92111424 3.38525391 115.6262207 C-5.23611292 117.0103851 -13.63677476 117.27821542 -22.34228516 117.20581055 C-24.6566848 117.18724584 -26.97068897 117.18530371 -29.28515625 117.18554688 C-30.76562847 117.18064081 -32.24609799 117.17481652 -33.7265625 117.16796875 C-34.41400543 117.16685593 -35.10144836 117.1657431 -35.8097229 117.16459656 C-38.81641719 117.13455475 -41.12284116 116.95905295 -44 116 C-44 116.99 -44 117.98 -44 119 C-43.113125 119.268125 -42.22625 119.53625 -41.3125 119.8125 C-38 121 -38 121 -35.6875 122.5 C-28.64616083 126.43004977 -20.31412161 126.37478303 -12.4375 126.625 C-11.42880859 126.66367188 -10.42011719 126.70234375 -9.38085938 126.7421875 C-6.9207436 126.83546203 -4.46061634 126.92125516 -2 127 C-2.87041143 131.33373268 -4.64088474 133.06970796 -8 136 C-8.52207031 136.47179687 -9.04414063 136.94359375 -9.58203125 137.4296875 C-15.97901035 142.36330536 -23.26438507 141.80471162 -31 141 C-33.7162783 140.29490337 -35.49529106 139.38014574 -38 138 C-39.4711291 137.41680239 -40.95071951 136.85455539 -42.4375 136.3125 C-43.613125 135.879375 -44.78875 135.44625 -46 135 C-45.80664062 135.69222656 -45.61328125 136.38445312 -45.4140625 137.09765625 C-42.13610145 149.41435147 -40.81715971 161.35782786 -40.6875 174.0625 C-40.66985596 175.0309082 -40.65221191 175.99931641 -40.6340332 176.99707031 C-40.64137724 184.96334214 -42.09993978 192.28428024 -44 200 C-44.31187256 201.27415771 -44.62374512 202.54831543 -44.94506836 203.86108398 C-52.46996032 234.12882925 -61.42197354 263.80980767 -75.90234375 291.57421875 C-79.92634248 299.57244145 -82.87919124 307.95166379 -85.875 316.375 C-86.17925903 317.2263855 -86.48351807 318.077771 -86.79699707 318.95495605 C-94.54823443 340.73224197 -101.82852922 362.74630509 -103 386 C-95.9405883 385.6174703 -91.43708239 384.07584402 -85.4375 380.4375 C-83.85169847 379.51964635 -82.26443016 378.60432271 -80.67578125 377.69140625 C-79.49556396 377.00715576 -79.49556396 377.00715576 -78.29150391 376.30908203 C-36.69452271 352.54570965 11.9022358 342.03851793 59.5 341.75 C60.90536011 341.73610229 60.90536011 341.73610229 62.33911133 341.72192383 C67.92364073 341.74775234 72.61770789 342.55092136 78 344 C79.66624314 344.03757098 81.33394433 344.04512533 83 344 C79.57194198 282.98886328 79.57194198 282.98886328 65.50292969 223.7902832 C65.16422852 222.79859131 64.82552734 221.80689941 64.4765625 220.78515625 C64.16799316 219.90738525 63.85942383 219.02961426 63.54150391 218.12524414 C63 216 63 216 64 214 C68.69726843 218.37206627 73.37979331 222.75932143 78.04736328 227.16308594 C79.59553651 228.61950696 81.1534923 230.06552814 82.71484375 231.5078125 C89.0825981 237.56466384 94.29743037 244.58983368 99 252 C100.04111938 253.53998657 100.04111938 253.53998657 101.10327148 255.11108398 C103.59481068 259.52852979 103.60226617 263.67240257 103.609375 268.65234375 C103.62591125 269.55247696 103.64244751 270.45261017 103.65948486 271.38002014 C103.70776119 274.23258425 103.72929028 277.08461605 103.75 279.9375 C103.77817675 281.88088586 103.80810655 283.82424715 103.83984375 285.76757812 C103.91351458 290.51167489 103.9632134 295.25547968 104 300 C107.26966439 288.16033872 107.26966439 288.16033872 109.6875 276.125 C109.80416016 275.45726562 109.92082031 274.78953125 110.04101562 274.1015625 C114.80527409 246.10817943 112.83765928 217.45803457 111.13348389 189.2822876 C110.94488755 186.05769551 110.78914494 182.83157746 110.62890625 179.60546875 C109.85436548 165.96258981 107.29157823 153.27824834 103.51904297 140.14697266 C103 138 103 138 103 135 C106.64483966 135.57897286 108.3509613 136.96574196 110.94140625 139.54296875 C111.68463135 140.27999023 112.42785645 141.01701172 113.19360352 141.77636719 C113.97533936 142.57204102 114.7570752 143.36771484 115.5625 144.1875 C116.3680835 145.00250977 117.17366699 145.81751953 118.00366211 146.65722656 C124.56727907 153.38610261 130.58487516 160.31797494 136 168 C136.40009277 168.56638184 136.80018555 169.13276367 137.21240234 169.71630859 C145.36827859 181.43976133 151.93419697 193.95570232 155 208 C158.61294136 176.85153466 162.7180316 139.63755579 150 110 C150.99 109.505 150.99 109.505 152 109 C161.32228836 116.93386243 169.46599048 125.3378774 177 135 C177.42152344 135.53979492 177.84304688 136.07958984 178.27734375 136.63574219 C185.85017026 146.41637345 192.37506896 156.71709056 198.52148438 167.44482422 C199.98594815 169.97571555 201.49855223 172.47304646 203.015625 174.97265625 C203.95066653 176.58434526 204.88306853 178.19756926 205.8125 179.8125 C206.25150635 180.51536133 206.6905127 181.21822266 207.14282227 181.94238281 C211.13079434 189.11762141 210.01196965 196.11764972 209 204 C208.8445874 205.28463135 208.6891748 206.5692627 208.52905273 207.89282227 C208.00761901 211.89614404 207.4256733 215.88497902 206.8125 219.875 C206.70628326 220.57957336 206.60006653 221.28414673 206.4906311 222.0100708 C204.54489102 234.8228477 201.81820426 247.36328548 198.47143555 259.88818359 C197.89106293 262.12735551 197.89106293 262.12735551 198 265 C222.68297984 237.21046664 233.87196617 179.8088555 235.31640625 143.28515625 C235.37924805 141.76245117 235.37924805 141.76245117 235.44335938 140.20898438 C235.50233398 138.65147461 235.50233398 138.65147461 235.5625 137.0625 C235.60568359 135.99708984 235.64886719 134.93167969 235.69335938 133.83398438 C235.79874489 131.22276557 235.90087088 128.61146254 236 126 C255.38497282 142.47197673 278.57027953 170.01563406 283 196 C283.64720984 204.31450417 282.54942918 211.11015999 279.625 218.875 C279.26631836 219.86040771 278.90763672 220.84581543 278.53808594 221.86108398 C271.64128113 240.40769726 262.73543782 257.80552525 253 275 C252.43829102 275.99209473 251.87658203 276.98418945 251.29785156 278.00634766 C247.88719348 284.01693362 244.4530342 290.01367379 241 296 C245.96563921 291.83519337 250.64481223 287.50293369 255.21875 282.9140625 C255.88032104 282.25344818 256.54189209 281.59283386 257.22351074 280.91220093 C258.61296345 279.52342439 260.00117156 278.13340162 261.38818359 276.7421875 C263.49075281 274.63427071 265.59859604 272.531735 267.70703125 270.4296875 C269.0654248 269.0706329 270.42350798 267.711268 271.78125 266.3515625 C272.40124878 265.73358795 273.02124756 265.1156134 273.66003418 264.47891235 C277.41254287 260.70660768 280.97854776 256.81765321 284.45169067 252.78642273 C286.69822121 250.19439984 289.03707602 247.6974334 291.375 245.1875 C301.39647976 234.30590356 310.24833471 222.79509355 318 210.1875 C318.66 209.135625 319.32 208.08375 320 207 C320.33 207 320.66 207 321 207 C321.04652462 217.74497256 321.08197089 228.48992079 321.10362434 239.23497391 C321.1140216 244.2253706 321.12810594 249.21569791 321.15087891 254.20605469 C321.17275293 259.03010481 321.18459908 263.85408858 321.18975449 268.67818451 C321.19342428 270.51039422 321.20058977 272.34260066 321.21146011 274.1747818 C321.37588725 303.06115163 321.37588725 303.06115163 315 310 C308.43976514 315.20313435 301.18836704 319.34113219 293.875 323.375 C292.27676392 324.26239868 292.27676392 324.26239868 290.64624023 325.16772461 C271.82002653 335.57008769 252.81095016 345.65202374 233.625 355.375 C232.5925415 355.90424072 231.56008301 356.43348145 230.49633789 356.97875977 C224.46165536 360.00332491 218.53982474 362.3143301 212 364 C212.66 366.31 213.32 368.62 214 371 C217.23512617 372.06336285 219.16063508 371.92218749 222.39672852 370.92700195 C223.26580338 370.66487411 224.13487823 370.40274628 225.0302887 370.13267517 C226.44035439 369.68995018 226.44035439 369.68995018 227.87890625 369.23828125 C228.86587997 368.93664566 229.8528537 368.63501007 230.86973572 368.32423401 C234.10424495 367.33155419 237.33352034 366.32301016 240.5625 365.3125 C242.802054 364.61790671 245.04163754 363.92340866 247.28125 363.22900391 C271.83068027 355.5859617 296.12341512 347.45300323 320.0625 338.0625 C320.75150391 337.7928241 321.44050781 337.52314819 322.15039062 337.24530029 C336.25772419 331.89884479 336.25772419 331.89884479 349 324 C349.66 324.33 350.32 324.66 351 325 C326.06157113 393.46921444 326.06157113 393.46921444 313 400 C311.50849772 400.14167617 310.01136018 400.22608411 308.51416016 400.28125 C307.5737085 400.31801849 306.63325684 400.35478699 305.66430664 400.39266968 C304.63297607 400.42808868 303.60164551 400.46350769 302.5390625 400.5 C301.46116455 400.54033356 300.3832666 400.58066711 299.27270508 400.6222229 C295.72363348 400.75320235 292.17435304 400.87690071 288.625 401 C286.18668434 401.08767629 283.74837055 401.17540453 281.31005859 401.26318359 C259.21116532 402.04472516 237.10848931 402.58273068 215 403 C215 404.32 215 405.64 215 407 C220.61342079 408.23524696 226.22870587 409.4615391 231.84570312 410.68041992 C233.74659841 411.09412351 235.6470111 411.51005229 237.546875 411.9284668 C255.68790845 415.92083936 273.68947402 419.07100037 292.25 420.1875 C294.11785156 420.3102832 294.11785156 420.3102832 296.0234375 420.43554688 C299.01523237 420.63116423 302.00727041 420.81935952 305 421 C302.10373893 433.88430159 294.31024825 442.72055087 283.3125 449.875 C271.46023145 457.2505072 260.36941059 456.47338771 247.14453125 453.52539062 C237.76128085 451.22657973 228.75193601 447.61273763 219.8046875 444.015625 C217.19946935 443.07223124 214.72745476 442.45957113 212 442 C211.67 445.3 211.34 448.6 211 452 C212.06516846 452.41209717 212.06516846 452.41209717 213.15185547 452.83251953 C216.02217281 454.00908884 218.78574764 455.31311383 221.5703125 456.6796875 C222.6325 457.19660156 223.6946875 457.71351563 224.7890625 458.24609375 C226.99101724 459.32128711 229.19157104 460.3993549 231.390625 461.48046875 C239.6490889 465.49030122 247.9138768 469.3588583 257 471 C257.8125 472.6875 257.8125 472.6875 258 475 C251.72153664 483.29654087 241.24108285 487.5372322 231.875 491.3125 C231.04025146 491.64999268 230.20550293 491.98748535 229.34545898 492.33520508 C215.35655301 497.78551767 215.35655301 497.78551767 209.8125 495.9375 C207 494 207 494 204 491.375 C200.67043168 488.73909175 199.16730911 488.30211386 195 488 C192.12621159 488.68607014 192.12621159 488.68607014 189.296875 489.94921875 C188.23339844 490.38556641 187.16992188 490.82191406 186.07421875 491.27148438 C184.97722656 491.73876953 183.88023437 492.20605469 182.75 492.6875 C181.66847656 493.13544922 180.58695313 493.58339844 179.47265625 494.04492188 C177.33690404 494.92988072 175.20337581 495.82022876 173.07226562 496.71630859 C168.73503354 498.52854368 164.37075271 500.27047278 160 502 C162.97900235 502.99300078 165.14424605 503.18066048 168.26171875 503.28125 C169.29876953 503.31863281 170.33582031 503.35601563 171.40429688 503.39453125 C173.02948242 503.44673828 173.02948242 503.44673828 174.6875 503.5 C181.51859376 503.72342766 188.23197472 504.01794071 195 505 C194.68186959 511.20354298 191.58221275 515.18137339 188 520 C187.56816406 520.59941406 187.13632812 521.19882812 186.69140625 521.81640625 C180.81797495 529.32812402 172.45731176 536.1782231 163 538 C159.83275743 538.07762004 156.71861412 537.87932024 153.5625 537.625 C152.73556641 537.56828125 151.90863281 537.5115625 151.05664062 537.453125 C149.03697112 537.31303232 147.01834363 537.15805019 145 537 C154.08935208 543.36512866 163.09880151 543.41074603 174 544 C172.56919855 545.66926835 171.13778881 547.33795319 169.703125 549.00390625 C168.6387691 550.25135089 167.58480777 551.5078292 166.546875 552.77734375 C162.47658399 557.70865786 157.8050817 563.11607501 152.00390625 565.98828125 C149.72124292 567.14147707 148.52818077 567.91961946 147 570 C146.31018415 573.35053415 145.91739501 576.57716271 145.62866211 579.97753906 C144.88747575 588.56385238 142.17738525 592.99420879 136 599 C136 599.99 136 600.98 136 602 C139.74099454 603.87049727 144.41502116 602.83051011 148.51953125 602.64453125 C152.62583456 603.06391801 154.16342594 604.05817273 157 607 C158.43589744 612.12820513 158.43589744 612.12820513 157 615 C156.53754163 619.08504893 156.48390296 621.23475267 158.8125 624.6875 C162.4474634 627.32463031 165.85541665 628.55057917 170.08203125 629.9765625 C179.34726561 633.22621632 185.27541234 636.55082468 189.75 645.5 C193.58395494 656.23507382 192.26728207 667.26295348 189 678 C187.17862508 681.34480888 184.87858125 683.53195467 182 686 C181.51595703 686.41749512 181.03191406 686.83499023 180.53320312 687.26513672 C178.24076929 689.23871385 175.93938639 691.20132176 173.62792969 693.15258789 C162.27738571 702.77894162 151.93326742 711.66778939 147.75 726.375 C145.3039737 734.25819332 139.13184447 740.7752156 133.5625 746.6875 C131.34302 749.18291535 130.66945623 750.89609159 130.1875 754.1875 C129.45561236 758.68555948 127.50455724 761.26337854 124.6875 764.8125 C118.43977149 772.71019224 114.58354799 780.88516818 114 791 C123.64901392 794.79633334 135.78240405 796.12071781 146 794 C148.96730108 791.98750315 150.43588727 790.15426564 152.421875 787.203125 C154.64342534 784.10175274 156.6606695 783.25423356 160.3125 782.390625 C161.199375 782.26171875 162.08625 782.1328125 163 782 C164.60875 781.74476563 164.60875 781.74476563 166.25 781.484375 C178.91533757 780.48170244 189.28927549 785.59482114 200.69042969 790.58007812 C205.04059657 792.44645247 209.4438936 794.1593538 213.85546875 795.87426758 C249.02913117 809.59188882 249.02913117 809.59188882 259 821 C259 821.99 259 822.98 259 824 C257.0494873 824.02187378 257.0494873 824.02187378 255.05957031 824.04418945 C250.18381774 824.10264905 245.30850425 824.17987481 240.43310547 824.26245117 C238.33259262 824.2954781 236.23199577 824.32357739 234.13134766 824.34643555 C217.81857643 824.40013256 217.81857643 824.40013256 202 828 C201.15453613 828.28673584 200.30907227 828.57347168 199.43798828 828.86889648 C196.12298089 830.02592535 192.82542178 831.22054484 189.54882812 832.48242188 C172.01136969 838.71766078 152.43622023 837.1889375 134.14306641 836.88354492 C130.99902997 836.83511273 127.85521216 836.80539154 124.7109375 836.77734375 C123.7670517 836.75558578 122.82316589 836.73382782 121.85067749 836.71141052 C113.25589019 836.64752755 106.5546495 838.23985347 100 844 C99.34 844 98.68 844 98 844 C97.59587891 844.86625 97.59587891 844.86625 97.18359375 845.75 C95.98578962 848.02701378 94.59700367 849.93837675 93.0625 852 C90.67074454 855.51897036 89.5144722 858.39931805 88.6875 862.5625 C87.36465595 868.82608687 84.58047189 873.55957302 81.33984375 878.98413086 C78.26086651 884.24426062 76.4387516 889.41381644 74.80859375 895.296875 C72.74836828 902.18419879 67.71774499 906.90788839 62 911 C60.72628379 911.55871707 59.44997473 912.11154088 58.171875 912.66015625 C52.98218734 915.18883577 50.26717072 919.17962946 47 923.8125 C46.36553955 924.68616211 45.7310791 925.55982422 45.07739258 926.45996094 C43.03139002 929.29277202 41.01368006 932.14413995 39 935 C38.31212402 935.96663574 37.62424805 936.93327148 36.91552734 937.92919922 C29.00334282 949.05946113 21.36549142 960.30515545 14.25244141 971.96191406 C11.84969177 975.8718856 9.3905735 979.74648151 6.9375 983.625 C6.43541016 984.4197876 5.93332031 985.2145752 5.41601562 986.03344727 C0.98120825 993.04631166 -3.4976021 1000.03037901 -8 1007 C-8.66 1006.67 -9.32 1006.34 -10 1006 C-12.24124571 994.64131667 -11.29644981 982.22876551 -11.35009766 970.70825195 C-11.36655103 968.13426607 -11.39369754 965.56032382 -11.43212891 962.98657227 C-11.84688547 934.94001244 -8.13390597 909.30336038 6.95703125 885.35546875 C9.01974517 881.96756959 10.64646843 878.62994031 12.05078125 874.9296875 C14.96345813 869.00844313 18.88027827 866.69569313 24.625 864.0625 C26.05989579 863.3724928 27.49349314 862.67977894 28.92578125 861.984375 C29.96919678 861.48067383 29.96919678 861.48067383 31.03369141 860.96679688 C33.67821018 859.66653684 36.25588681 858.27773769 38.8125 856.8125 C39.56144531 856.38582031 40.31039063 855.95914063 41.08203125 855.51953125 C43.47680392 853.62224699 44.65440581 851.72939136 46 849 C46 848.01 46 847.02 46 846 C34.03792232 847.35055716 24.16028676 853.38990108 14.4375 860.0625 C1.31164226 869.01095472 -11.82753303 873.6643023 -27.72265625 874.19921875 C-42.01158097 874.77771773 -54.83150967 878.24792012 -68.44918823 882.30395508 C-82.3797205 886.45223361 -96.3316427 890.18708534 -110.5 893.4375 C-111.39993683 893.64421326 -112.29987366 893.85092651 -113.2270813 894.06390381 C-127.75282662 897.38263506 -142.32445405 900.41427854 -157 903 C-157.33 902.01 -157.66 901.02 -158 900 C-142.55868005 874.72817004 -109.83890897 855.95062153 -83.58984375 844.0625 C-82.47875244 843.55332031 -81.36766113 843.04414062 -80.22290039 842.51953125 C-78.0519992 841.53421155 -75.87052698 840.57173571 -73.67749023 839.63671875 C-66.92678349 836.57776268 -62.97094193 833.31646933 -58.71704102 827.22070312 C-53.46179305 820.42392572 -43.59996951 819.4032245 -35.57421875 818.3671875 C-33.94644987 818.19220024 -32.31740331 818.02884171 -30.6875 817.875 C-29.32347046 817.74436157 -29.32347046 817.74436157 -27.93188477 817.61108398 C-21.616938 817.09119827 -15.3470084 816.94490171 -9.015625 816.98046875 C-8.22908035 816.98467834 -7.44253571 816.98888794 -6.63215637 816.9932251 C-2.69673756 817.02114279 1.236583 817.07527208 5.17114258 817.16162109 C16.27140133 817.34995643 27.12392753 817.4608203 36 810 C39.7145694 808.40804169 43.33833031 807.18401938 47.23046875 806.1015625 C55.48630632 803.76940499 59.23272068 802.15091898 64 795 C64.34977813 793.28164554 64.63489625 791.54957714 64.875 789.8125 C66.74261208 778.83846931 72.38073528 771.70079013 81.23046875 765.1015625 C83 764 83 764 85 764 C84.9175 762.741875 84.835 761.48375 84.75 760.1875 C84.79189113 751.30657995 88.24575973 744.14405111 94.0234375 737.55859375 C96.51368495 735.59494013 98.96969987 734.8578737 102 734 C102.03738281 732.92621094 102.07476563 731.85242188 102.11328125 730.74609375 C102.17899112 729.3098638 102.24543668 727.87366738 102.3125 726.4375 C102.33505859 725.73302734 102.35761719 725.02855469 102.38085938 724.30273438 C102.73703785 717.27630439 104.79459262 711.82649579 109.46875 706.3828125 C111.24204917 704.78141478 113.06931211 703.84746691 115.1875 702.75 C117.75101036 701.25980986 118.79555537 700.5644237 119.81640625 697.74609375 C120.10965513 696.01566118 120.36922611 694.27923819 120.59765625 692.5390625 C121.39811838 687.48760244 124.01543894 683.45191599 126.8515625 679.26953125 C127.82222656 677.83673828 127.82222656 677.83673828 128.8125 676.375 C129.75029297 675.05628906 129.75029297 675.05628906 130.70703125 673.7109375 C132.33607347 670.29536258 132.03809046 668.59149782 131 665 C130.34 664.01 129.68 663.02 129 662 C125.15827626 662.48021547 121.58978686 663.09283847 117.875 664.1875 C114 665 114 665 111.3125 664.5625 C107.99703802 662.32232298 106.10847853 659.35562116 104 656 C103.40316406 656.40089844 102.80632812 656.80179688 102.19140625 657.21484375 C89.23757783 665.70316222 76.00347985 672.90746294 61 677 C60.33967773 677.19464844 59.67935547 677.38929688 58.99902344 677.58984375 C32.60750045 685.2121241 1.38548175 683.15883471 -23.046875 670.41015625 C-28.18561803 667.95633848 -32.65768967 667.88465131 -38.3125 667.9375 C-39.56675781 667.94652344 -40.82101562 667.95554687 -42.11328125 667.96484375 C-43.06589844 667.97644531 -44.01851563 667.98804688 -45 668 C-45.21398437 668.52078125 -45.42796875 669.0415625 -45.6484375 669.578125 C-47.55976581 673.00304856 -50.05783908 675.79817919 -52.625 678.75 C-53.16406982 679.37471191 -53.70313965 679.99942383 -54.25854492 680.64306641 C-57.75627595 684.66329091 -61.37517097 688.49771216 -65.203125 692.20703125 C-67.08707294 694.08688365 -68.82628482 696.04587839 -70.5625 698.0625 C-74.96755233 703.16518505 -79.6320708 707.86171447 -84.75 712.25 C-92.16991073 718.66137918 -99.02896065 725.70447291 -105.3828125 733.16796875 C-107.05300601 735.06004787 -108.81183591 736.80769956 -110.625 738.5625 C-113.90232661 741.77324435 -116.43930097 745.19774993 -119 749 C-115.11901651 753.47805788 -111.53642334 754.6585584 -105.75 755.4375 C-102.04093669 755.00477595 -100.43017091 754.27626635 -97.25 752.5 C-91.73698345 749.57643062 -87.1532569 748.91878486 -81 750 C-75.55146333 751.80821319 -71.58141094 754.08415876 -68.0625 758.625 C-63.87356604 763.19833026 -58.44536338 763.20069915 -52.60693359 763.94677734 C-36.67907781 765.98849712 -17.67858196 771.28514915 -6 783 C-6 783.66 -6 784.32 -6 785 C-7.91619141 784.96519531 -7.91619141 784.96519531 -9.87109375 784.9296875 C-16.24914381 784.84922977 -22.6223871 784.89939633 -29 785 C-29.6755896 785.01035278 -30.3511792 785.02070557 -31.04724121 785.03137207 C-35.41199138 785.1055213 -39.77128716 785.23405426 -44.13284302 785.41705322 C-45.57191256 785.47181697 -47.01154457 785.51354463 -48.4513855 785.54144287 C-57.26998355 785.72631484 -63.31339204 786.75467288 -69.89404297 793.06469727 C-78.23752001 800.73206829 -89.97703432 800.60883965 -100.63085938 800.16601562 C-114.18327857 799.21634074 -127.08757626 794.53120299 -139.74951172 789.91040039 C-147.77665215 786.96726878 -147.77665215 786.96726878 -156 788 C-157.93379446 789.09704224 -157.93379446 789.09704224 -159.3125 790.5625 C-162 793 -162 793 -164 793 C-164.23460937 793.58136719 -164.46921875 794.16273438 -164.7109375 794.76171875 C-166.29753062 797.51662135 -168.09778759 798.89166208 -170.625 800.8125 C-176.88878367 805.69033154 -182.72895059 810.38433633 -187.75 816.5625 C-193.73402627 823.43826352 -202.26978406 827.35746401 -211.2109375 828.84765625 C-214.65725873 829.03590069 -217.93932018 828.70204367 -221.375 828.375 C-255.32302519 825.39078071 -289.83416084 847.88814389 -318.32885742 863.56469727 C-321.1912323 865.10275612 -324.08732404 866.55981833 -327 868 C-321.20968836 842.36580782 -298.6304225 816.28424127 -277 802 C-276.34 802 -275.68 802 -275 802 C-275 801.01 -275 800.02 -275 799 C-298.98006674 799.3924503 -321.48743126 803.63502441 -344.69067383 809.35766602 C-345.4032132 809.53159378 -346.11575256 809.70552155 -346.84988403 809.88471985 C-348.79847915 810.36139486 -350.74536972 810.8450224 -352.69213867 811.32910156 C-355.58703433 811.91624255 -358.06290685 812.14359587 -361 812 C-356.5311987 796.35919546 -339.60979716 788.43488125 -326.3125 780.9375 C-311.44928612 772.75780867 -295.88119125 766.41380501 -280.01953125 760.44921875 C-275.27784747 758.66521891 -270.5459103 756.86701853 -265.87890625 754.89453125 C-265.18224854 754.6003833 -264.48559082 754.30623535 -263.76782227 754.00317383 C-261.65563668 752.9508743 -261.65563668 752.9508743 -259.625 750 C-255.3083866 745.06672755 -249.40826927 743.32021063 -242.96484375 742.71484375 C-237.13281816 743.13428993 -231.60780905 744.55395725 -225.9375 745.9375 C-223.63449332 746.48986276 -221.33111908 747.0406957 -219.02734375 747.58984375 C-218.01406006 747.83597412 -217.00077637 748.08210449 -215.95678711 748.33569336 C-209.50301479 749.78567391 -203.14991372 750.37146607 -196.5625 750.75 C-195.64662109 750.81832031 -194.73074219 750.88664063 -193.78710938 750.95703125 C-185.82073966 751.4031022 -180.67481917 749.90911786 -174.515625 744.51171875 C-172.80371213 742.80421802 -171.29171467 740.98730487 -169.75 739.125 C-162.57455366 730.85525901 -155.826283 727.66020599 -145.13671875 725.71875 C-138.09320963 724.10479523 -135.0173809 718.79899762 -130.85546875 713.27734375 C-127.1385354 708.71529713 -122.84503626 705.00954814 -117.6875 702.1875 C-114.15783278 699.31451505 -113.85482671 696.77246997 -112.765625 692.47265625 C-111.22774269 687.5059241 -108.32872017 684.7972321 -103.875 682.125 C-101 681 -101 681 -98 681 C-97.91492188 680.33742188 -97.82984375 679.67484375 -97.7421875 678.9921875 C-96.762451 675.04230246 -94.9997195 671.71989222 -93.125 668.125 C-90.55613945 663.14724458 -88.14843159 658.17515283 -86 653 C-86.7434668 653.01571045 -87.48693359 653.0314209 -88.25292969 653.04760742 C-103.75708563 653.33069563 -118.80825124 653.34921623 -134 650 C-134.82983398 649.81727539 -135.65966797 649.63455078 -136.51464844 649.44628906 C-166.74849063 642.45334949 -190.62348205 627.02485758 -209.75390625 602.8046875 C-211.37285888 600.78310839 -213.00693659 598.82565404 -214.71484375 596.8828125 C-222.00790704 588.56995114 -228.58903666 579.93623643 -232.8359375 569.63671875 C-238.72974277 556.20624558 -247.24848611 551.61329294 -260.39453125 545.69921875 C-266.08561849 543.08888587 -269.85432797 540.86418008 -272.2578125 534.85546875 C-276.11889656 518.52412671 -278.05144574 501.74688905 -279 485 C-281.20777219 494.1288813 -282.5039898 503.39282594 -283.89819336 512.67163086 C-284.22235252 514.82187876 -284.55049079 516.97149252 -284.87890625 519.12109375 C-285.0704126 520.3939624 -285.26191895 521.66683105 -285.45922852 522.97827148 C-286 526 -286 526 -287 528 C-290.35915093 527.72446755 -291.7174547 527.28988414 -294.10546875 524.83984375 C-296.44170527 521.58313881 -298.75222908 518.31834276 -301 515 C-301.45729492 514.33822754 -301.91458984 513.67645508 -302.38574219 512.99462891 C-303.80279285 510.92854369 -305.18698465 508.84392483 -306.5625 506.75 C-307.00424561 506.101521 -307.44599121 505.45304199 -307.90112305 504.78491211 C-310.99741664 499.92898299 -311.62600288 496.75353556 -311 491 C-310.00390625 487.53515625 -310.00390625 487.53515625 -308.5625 484.0625 C-308.30243164 483.43424316 -308.04236328 482.80598633 -307.77441406 482.15869141 C-304.91627871 475.45407815 -301.45208095 469.06633141 -297.953125 462.6796875 C-294.92894189 457.14391143 -294.92894189 457.14391143 -294 451 C-294.87398437 451.41572266 -294.87398437 451.41572266 -295.765625 451.83984375 C-306.4517204 456.56121609 -317.18387459 457.31386274 -328.203125 453.171875 C-330 452 -330 452 -330.828125 450.22265625 C-333.20791844 438.03723245 -331.36603222 427.0132469 -329 415 C-324.56874753 415.57454391 -321.01081169 416.75500012 -316.9375 418.5625 C-306.29819313 422.68327344 -297.56736648 421.9223706 -287.26123047 417.55957031 C-280.40637087 414.44454349 -274.30753242 411.02850638 -271 404 C-271.66 404.33 -272.32 404.66 -273 405 C-280.83754914 405.64486164 -287.68528666 404.86169772 -295 402 C-296.03125 401.608125 -297.0625 401.21625 -298.125 400.8125 C-300 399 -300 399 -300.29296875 395.421875 C-300.17890368 390.73094886 -298.85215571 386.7860687 -297.1875 382.4375 C-296.92646484 381.72142578 -296.66542969 381.00535156 -296.39648438 380.26757812 C-294.74235053 375.77895319 -292.91748484 371.38199989 -291 367 C-290.14019531 367.48210937 -289.28039062 367.96421875 -288.39453125 368.4609375 C-277.934301 374.13193096 -267.75775634 377.65809119 -255.73828125 374.875 C-226.68747303 365.59200279 -204.55561563 336.91705044 -191.00488281 311.01416016 C-181.72662514 292.41706934 -172.4283601 266.21282347 -177.7265625 245.10546875 C-180.7073658 237.79886555 -185.44092579 233.93893474 -192.5234375 230.796875 C-216.04368561 223.22884564 -246.3131353 229.36474956 -268.1953125 239.4765625 C-277.00363732 244.06474284 -284.32866986 249.60298523 -290.39453125 257.49609375 C-292 259 -292 259 -296 259 C-301.5860019 247.92502353 -306.05565491 237.06394227 -309 225 C-309.24621094 224.01128906 -309.49242187 223.02257812 -309.74609375 222.00390625 C-314.40427891 199.35548873 -309.98874506 176.14298193 -297.93359375 156.52734375 C-292.68008741 148.64238521 -286.55139912 141.79732251 -280 135 C-279.36835938 134.30519531 -278.73671875 133.61039063 -278.0859375 132.89453125 C-265.35039539 119.28938164 -247.93139098 108.66916276 -230.9375 101.3125 C-227.39365881 99.5834979 -227.13728377 99.34022499 -225.5625 95.4375 C-225.35555621 93.96092811 -225.17053502 92.48121845 -225 91 C-223.30169856 82.48584879 -221.76660554 75.48776015 -214.4375 70.125 C-209.82517412 67.99623421 -206.09871034 67.90194788 -201 68 C-201.57634139 72.75481646 -203.55068521 75.97048212 -206 80 C-202.47277101 78.48602956 -200.13519646 76.39331518 -197.375 73.75 C-188.43722966 65.62119573 -177.55770139 58.86416347 -165.0625 59.0625 C-161.78266199 60.06653204 -158.94883989 61.24473816 -156 63 C-155.67 63.66 -155.34 64.32 -155 65 C-158.63 66.32 -162.26 67.64 -166 69 C-164.1025 68.835 -162.205 68.67 -160.25 68.5 C-137.91370382 66.82477779 -137.91370382 66.82477779 -130.04296875 71.05078125 C-118.40010256 76.460373 -98.16446498 68.97965917 -86.73046875 64.84765625 C-66.53611368 57.15557767 -48.13744205 46.09607512 -31 33 C-29.89846808 32.16662625 -28.79690372 31.33329537 -27.6953125 30.5 C-24.4406818 28.02869502 -21.21880471 25.51776358 -18 23 C-17.30777344 22.47792969 -16.61554688 21.95585938 -15.90234375 21.41796875 C-8.82862521 15.82666959 -3.84293646 8.06542221 0 0 Z M-193 117 C-190.91056207 119.28935328 -189.07904537 120.57337813 -186.25 121.8125 C-180.66515515 124.50188101 -175.3194237 128.04068861 -173 134 C-173.25588785 137.51845794 -173.73348578 140.3781335 -175.125 143.625 C-176.18015647 146.48899614 -175.82642411 148.10751562 -175 151 C-167.95620622 151.80043111 -162.2359628 149.12271278 -156 146 C-155.34 145.34 -154.68 144.68 -154 144 C-154 135.63810989 -159.29709632 126.88111942 -165 121 C-174.09170641 114.32037897 -182.28798782 116.01498739 -193 117 Z M191 439 C191.48705712 441.06402968 191.48705712 441.06402968 193 443 C196.32416555 444.17761741 196.32416555 444.17761741 200 444 C202.92860404 442.20954506 202.92860404 442.20954506 205 440 C204.72382467 438.05925139 204.72382467 438.05925139 204 436 C198.08009387 432.05339591 195.43192984 433.93493733 191 439 Z " fill="#000000" transform="translate(447,16)"/>
</svg>
